<?xml version="1.0" encoding="utf-8"?>
<!-- Generator: Adobe Illustrator 16.0.0, SVG Export Plug-In . SVG Version: 6.00 Build 0)  -->
<!DOCTYPE svg PUBLIC "-//W3C//DTD SVG 1.1//EN" "http://www.w3.org/Graphics/SVG/1.1/DTD/svg11.dtd">
<svg version="1.1" id="Calque_1" xmlns="http://www.w3.org/2000/svg" xmlns:xlink="http://www.w3.org/1999/xlink" x="0px" y="0px"
	 width="480px" height="640px" viewBox="0 0 480 640" enable-background="new 0 0 480 640" xml:space="preserve">
<g>
	<path fill-rule="evenodd" clip-rule="evenodd" fill="#FEFEFE" d="M252.308,130.781c43.198,0,86.396,0.082,129.593-0.125
		c4.344-0.021,5.197,0.853,5.189,5.193c-0.156,103.771-0.156,207.541,0.001,311.313c0.007,4.341-0.85,5.197-5.19,5.189
		c-93.635-0.16-187.27-0.16-280.905,0.001c-4.341,0.007-5.201-0.85-5.191-5.19c0.173-72.641,0.123-145.279,0.123-217.919
		c2.088,1.956,4.599,3.616,6.198,5.911c16.379,23.531,32.611,47.165,48.884,70.769l0.006,0.008
		c6.018,13.17,9.942,27.688,23.264,36.161c0.345,0.14,0.524,0.395,0.537,0.767c0.752,1.203,1.505,2.406,2.257,3.608l0.004,0.006
		c11.154,22.501,22.362,44.966,41.19,62.402c0.257,0.92,0.513,1.841,0.77,2.763c0.341,0.537,0.683,1.076,1.023,1.613
		c1.012,1.484,2.023,2.97,3.034,4.454c3.183,5.779,6.027,12.134,14.67,8.633c3.865-1.663,7.73-3.324,11.595-4.987
		c3.927-1.235,7.854-2.472,11.782-3.709c14.255-7.122,28.509-14.245,42.764-21.367c19.481-9.833,38.964-19.666,58.446-29.5
		l0.047,0.008c0.371-0.024,0.742-0.048,1.114-0.072c2.083-2.284,4.166-4.569,6.249-6.853c1.357-2.172,2.716-4.346,4.319-6.91
		c-3.481-7.901-6.942-15.754-10.402-23.605c-0.348-0.563-0.695-1.126-1.044-1.688c-0.291-0.407-0.396-0.858-0.315-1.354
		c-7.588-13.635-15.178-27.27-22.768-40.903c-0.492-4.679-0.983-9.358-1.54-14.672c-4.706-4.017-13.578-5.905-10.256-15.87
		c-3.975-3.464-7.699-6.712-11.427-9.96c-7.416-13.352-14.831-26.706-22.245-40.06l-0.014-0.021
		c-3.363-5.322-6.727-10.643-10.09-15.965c-0.319-0.211-0.473-0.506-0.461-0.89c-0.851-1.615-1.701-3.231-2.551-4.847
		c-0.797-1.137-1.595-2.275-2.393-3.412c-0.961-1.834-1.921-3.668-2.883-5.503c-0.261-0.322-0.498-0.659-0.714-1.012
		c-0.793-1.57-1.585-3.138-2.378-4.708c-0.255-0.33-0.438-0.694-0.553-1.096c0.67-6.465-2.081-10.884-8.019-13.395l-0.147-0.214
		C260.025,146.107,256.167,138.445,252.308,130.781z"/>
	<path fill-rule="evenodd" clip-rule="evenodd" fill="#FEFEFE" d="M95.928,219.107c0-29.442,0-58.884,0-88.326
		c42.956,0,85.913,0,128.869,0c-2.342,3.038-4.684,6.075-7.025,9.112c-0.1,0.336-0.105,0.673-0.017,1.012l-0.216,0.129
		c-0.417-0.157-0.84-0.177-1.27-0.06c-8.591,2.148-17.322,4.06-21.897,12.982c-0.938,0.492-1.877,0.984-2.815,1.478
		c-7.826,3.758-15.653,7.517-23.479,11.275c-12.401,5.529-26.138,9.245-36.816,17.112c-10.055,7.408-26.372,5.634-30.898,20.816
		c-0.41,4.881-0.82,9.761-1.231,14.643C98.064,219.223,96.996,219.165,95.928,219.107z"/>
	<path fill-rule="evenodd" clip-rule="evenodd" fill="#D9D1C3" d="M95.928,219.107c1.068,0.058,2.137,0.116,3.205,0.174
		c5.572,9.72,11.145,19.438,16.715,29.157c2.693,4.383,5.388,8.767,8.083,13.15c3.751,5.844,7.503,11.688,11.255,17.531
		c5.275,8.936,10.55,17.869,15.825,26.803c-16.273-23.604-32.505-47.238-48.884-70.769c-1.599-2.295-4.11-3.955-6.198-5.911
		C95.928,225.864,95.928,222.485,95.928,219.107z"/>
	<path fill-rule="evenodd" clip-rule="evenodd" fill="#7D632C" d="M234.933,130.781c3.861,0,7.723,0,11.583,0
		c5.082,4.767,11.676,8.663,9.999,17.331l0.115-0.071c-3.214-3.679-6.428-7.36-11.413-13.068
		c-5.033,1.789-11.153,3.963-17.272,6.138c-1.526,0.811-3.054,1.621-4.58,2.431c-0.972,0.473-1.943,0.945-2.916,1.417
		c-0.97-1.308-1.94-2.616-2.91-3.924c0,0,0.216-0.129,0.215-0.129c0.482,0.057,0.857-0.119,1.125-0.527
		C224.23,137.178,229.581,133.979,234.933,130.781z"/>
	<path fill-rule="evenodd" clip-rule="evenodd" fill="#E0D9CD" d="M256.515,148.111c1.677-8.668-4.917-12.563-9.999-17.331
		c1.932,0,3.861,0,5.792,0c3.859,7.664,7.718,15.327,11.578,22.992C261.429,151.887,258.972,149.999,256.515,148.111z"/>
	<path fill-rule="evenodd" clip-rule="evenodd" fill="#F3E6CE" d="M234.933,130.781c-5.352,3.199-10.702,6.397-16.052,9.594
		c-0.325-0.263-0.694-0.424-1.108-0.482c2.341-3.038,4.683-6.075,7.025-9.112C228.175,130.781,231.554,130.781,234.933,130.781z"/>
	<path fill-rule="evenodd" clip-rule="evenodd" fill="#544223" d="M237.766,426.338c-8.643,3.501-11.488-2.854-14.67-8.631
		c-1.479-3.381-2.958-6.762-4.437-10.144c-12.994-19.741-25.988-39.482-38.982-59.225c0.727-1.295,1.454-2.589,2.181-3.885
		l-0.005,0.226c0.423,0.554,0.846,1.109,1.27,1.664c11.749,17.023,23.499,34.047,35.248,51.07c1.122,1.461,2.244,2.92,3.366,4.379
		c0.477,0.444,0.953,0.889,1.43,1.332c1.594,2.84,3.187,5.678,4.779,8.517c3.295,4.429,6.592,8.857,9.887,13.288
		C237.83,425.399,237.807,425.868,237.766,426.338z"/>
	<path fill-rule="evenodd" clip-rule="evenodd" fill="#645232" d="M181.858,344.454c-0.727,1.296-1.455,2.59-2.181,3.885
		c-0.866-0.622-1.732-1.244-2.599-1.866l-0.004-0.006c-0.752-1.202-1.505-2.405-2.257-3.608c-0.013-0.372-0.191-0.627-0.537-0.767
		c-7.754-12.054-15.509-24.108-23.264-36.161l-0.006-0.008c-5.275-8.934-10.55-17.868-15.822-26.803
		c1.389-0.233,2.774-0.468,4.16-0.701c0.748,0.563,1.495,1.127,2.242,1.69c12.763,19.714,25.527,39.429,38.29,59.143
		C180.538,340.986,181.199,342.72,181.858,344.454z"/>
	<path fill-rule="evenodd" clip-rule="evenodd" fill="#5E441E" d="M362.354,366.774c-19.482,9.834-38.965,19.667-58.447,29.5
		c-0.796-0.657-1.591-1.315-2.387-1.973c16.702-8.569,33.405-17.138,50.107-25.707c2.536-1.128,5.073-2.255,7.609-3.384
		C360.275,365.732,361.314,366.253,362.354,366.774z"/>
	<path fill-rule="evenodd" clip-rule="evenodd" fill="#D9D1C3" d="M177.078,346.473c0.867,0.622,1.733,1.244,2.599,1.866
		c12.994,19.742,25.988,39.483,38.982,59.225c-0.272,0.395-0.404,0.832-0.392,1.312C199.44,391.438,188.232,368.974,177.078,346.473
		z"/>
	<path fill-rule="evenodd" clip-rule="evenodd" fill="#8F7C48" d="M283.521,187.958c-0.012,0.383,0.142,0.679,0.462,0.888
		c3.363,5.322,6.726,10.645,10.089,15.967l0.014,0.021c3.874,8.624,7.747,17.248,11.62,25.874c-0.935,0.005-1.868,0.01-2.803,0.015
		c-1.364-1.484-2.729-2.969-4.094-4.453c-7.765-15.447-15.53-30.892-23.295-46.339c1.021-0.078,2.043-0.156,3.063-0.233
		c0.798,1.137,1.596,2.275,2.394,3.412C281.821,184.726,282.671,186.342,283.521,187.958z"/>
	<path fill-rule="evenodd" clip-rule="evenodd" fill="#645232" d="M301.519,394.302c0.797,0.657,1.592,1.315,2.388,1.973
		c-14.254,7.122-28.508,14.245-42.762,21.367c-0.592-1.096-1.184-2.191-1.775-3.286
		C273.419,407.671,287.469,400.986,301.519,394.302z"/>
	<path fill-rule="evenodd" clip-rule="evenodd" fill="#E0D9CD" d="M339.556,285.395c7.588,13.635,15.178,27.27,22.766,40.905
		c-0.838-0.596-1.676-1.19-2.514-1.787c-0.55-0.983-1.099-1.967-1.646-2.95c-8.287-7.244-6.131-22.337-19.411-25.828
		c-1.217-2.206-2.436-4.411-3.653-6.616c1.22,0.492,2.438,0.984,4.067,1.64c-0.232-1.933-0.392-3.244-0.55-4.553
		C338.926,285.932,339.24,285.664,339.556,285.395z"/>
	<path fill-rule="evenodd" clip-rule="evenodd" fill="#645232" d="M359.808,324.514c0.838,0.596,1.676,1.19,2.514,1.786
		c-0.081,0.495,0.024,0.946,0.315,1.354c0.348,0.563,0.696,1.125,1.044,1.688c3.46,7.852,6.921,15.704,10.402,23.605
		c-1.604,2.564-2.962,4.738-4.319,6.91c-0.534-0.896-1.068-1.792-1.602-2.688c-1.324-4.579-2.649-9.159-3.975-13.739l-0.109-0.169
		c-0.705-1.042-1.411-2.083-2.117-3.125c-0.188-0.953-0.376-1.906-0.567-2.856c-0.686-1.688-1.369-3.379-2.053-5.071
		C359.496,329.643,359.651,327.079,359.808,324.514z"/>
	<path fill-rule="evenodd" clip-rule="evenodd" fill="#E0D9CD" d="M316.333,244.895c3.726,3.248,7.45,6.496,11.425,9.96
		c-3.322,9.965,5.55,11.853,10.256,15.87c0.557,5.314,1.048,9.993,1.54,14.672c-0.313,0.267-0.628,0.536-0.939,0.809
		c-1.693-4.764-3.389-9.526-5.37-15.098c-8.637-2.006-9.718-9.926-11.216-17.578c-0.529-0.331-1.058-0.662-1.588-0.993
		c-0.943-0.629-1.886-1.26-2.829-1.891c-0.688-1.692-1.376-3.385-2.063-5.078C315.809,245.344,316.07,245.118,316.333,244.895z"/>
	<path fill-rule="evenodd" clip-rule="evenodd" fill="#E0D9CD" d="M305.706,230.708c-3.873-8.625-7.746-17.249-11.62-25.873
		c7.414,13.354,14.829,26.708,22.245,40.06c-0.261,0.223-0.522,0.449-0.783,0.674c-1.58-1.612-3.16-3.223-4.74-4.834
		C309.107,237.393,307.407,234.05,305.706,230.708z"/>
	<path fill-rule="evenodd" clip-rule="evenodd" fill="#D9D1C3" d="M151.016,305.931c7.755,12.053,15.509,24.107,23.264,36.161
		C160.958,333.619,157.034,319.101,151.016,305.931z"/>
	<path fill-rule="evenodd" clip-rule="evenodd" fill="#B49E66" d="M256.515,148.111c2.457,1.888,4.914,3.775,7.371,5.662
		c-0.001-0.001,0.146,0.212,0.146,0.211c2.673,4.465,5.347,8.931,8.02,13.396c0.114,0.401,0.298,0.766,0.552,1.096
		c0.378,1.524,0.755,3.051,1.132,4.577c0,0-0.358,0.363-0.356,0.361c-1.012-0.201-2.028-0.4-3.044-0.6
		c-3.563-5.333-7.127-10.665-10.69-15.997c-1.004-2.926-2.009-5.851-3.014-8.777L256.515,148.111z"/>
	<path fill-rule="evenodd" clip-rule="evenodd" fill="#544223" d="M368.162,357.171c0.533,0.895,1.067,1.791,1.602,2.687
		c-2.083,2.283-4.166,4.568-6.25,6.853c-0.371,0.021-0.742,0.045-1.113,0.072l-0.047-0.008c-1.039-0.521-2.078-1.042-3.118-1.563
		c2.147-2.693,4.294-5.389,6.44-8.084C366.505,357.141,367.333,357.155,368.162,357.171z"/>
	<path fill-rule="evenodd" clip-rule="evenodd" fill="#E0D9CD" d="M294.072,204.813c-3.363-5.322-6.726-10.645-10.089-15.967
		C287.346,194.17,290.709,199.491,294.072,204.813z"/>
	<path fill-rule="evenodd" clip-rule="evenodd" fill="#53391F" d="M237.766,426.338c0.041-0.47,0.063-0.938,0.067-1.408
		c3.854-1.25,7.71-2.499,11.564-3.749l-0.036,0.17C245.496,423.014,241.631,424.675,237.766,426.338z"/>
	<path fill-rule="evenodd" clip-rule="evenodd" fill="#8F7C48" d="M249.361,421.351c0,0,0.036-0.17,0.037-0.17
		c3.324-2.274,6.646-4.55,9.971-6.825c0.592,1.095,1.184,2.19,1.775,3.286C257.216,418.879,253.288,420.115,249.361,421.351z"/>
	<path fill-rule="evenodd" clip-rule="evenodd" fill="#E0D9CD" d="M272.051,167.38c-2.673-4.466-5.347-8.931-8.02-13.396
		C269.97,156.497,272.721,160.915,272.051,167.38z"/>
	<path fill-rule="evenodd" clip-rule="evenodd" fill="#8F7C48" d="M218.268,408.875c-0.012-0.479,0.12-0.917,0.392-1.312
		c1.479,3.382,2.958,6.763,4.437,10.144c-1.012-1.486-2.022-2.972-3.034-4.456c-0.341-0.539-0.683-1.076-1.024-1.613
		C218.781,410.716,218.525,409.795,218.268,408.875z"/>
	<path fill-rule="evenodd" clip-rule="evenodd" fill="#E0D9CD" d="M278.578,179.699c-1.021,0.078-2.042,0.156-3.063,0.233
		l0.031,0.063c0.018-0.944,0.035-1.888,0.053-2.832c0.033-0.989,0.065-1.979,0.098-2.967
		C276.657,176.031,277.617,177.865,278.578,179.699z"/>
	<path fill-rule="evenodd" clip-rule="evenodd" fill="#E0D9CD" d="M283.521,187.958c-0.851-1.616-1.7-3.232-2.55-4.847
		C281.82,184.728,282.671,186.344,283.521,187.958z"/>
	<path fill-rule="evenodd" clip-rule="evenodd" fill="#E0D9CD" d="M273.734,173.053c-0.377-1.526-0.754-3.053-1.132-4.577
		c0.794,1.57,1.586,3.138,2.38,4.708C274.564,173.172,274.148,173.13,273.734,173.053z"/>
	<path fill-rule="evenodd" clip-rule="evenodd" fill="#D9D1C3" d="M174.816,342.858c0.752,1.203,1.505,2.406,2.257,3.608
		C176.322,345.265,175.569,344.062,174.816,342.858z"/>
	<path fill-rule="evenodd" clip-rule="evenodd" fill="#B49E66" d="M273.734,173.053c0.414,0.077,0.83,0.119,1.248,0.13
		c0.215,0.354,0.452,0.69,0.713,1.012c-0.031,0.99-0.063,1.979-0.097,2.968c-0.742-1.25-1.482-2.499-2.223-3.748L273.734,173.053z"
		/>
	<path fill-rule="evenodd" clip-rule="evenodd" fill="#E0D9CD" d="M363.681,329.342c-0.348-0.563-0.696-1.126-1.044-1.688
		C362.985,328.216,363.333,328.778,363.681,329.342z"/>
	<path fill-rule="evenodd" clip-rule="evenodd" fill="#5E441E" d="M362.4,366.782c0.371-0.027,0.742-0.051,1.113-0.072
		C363.143,366.734,362.771,366.758,362.4,366.782z"/>
	<path fill-rule="evenodd" clip-rule="evenodd" fill="#D9D1C3" d="M219.038,411.638c0.341,0.537,0.684,1.074,1.024,1.613
		C219.721,412.714,219.379,412.175,219.038,411.638z"/>
	<path fill-rule="evenodd" clip-rule="evenodd" fill="#53391F" d="M115.849,248.439c-5.572-9.72-11.145-19.439-16.716-29.159
		c0.411-4.881,0.821-9.761,1.231-14.643c7.08-3.935,14.16-7.87,21.24-11.806c1.204,0.717,2.407,1.436,3.61,2.152
		c-35.179,14.313-15.872,33.945-5.15,52.739C118.658,247.963,117.253,248.2,115.849,248.439z"/>
	<path fill-rule="evenodd" clip-rule="evenodd" fill="#D9D1C3" d="M121.603,192.833c-7.08,3.936-14.16,7.871-21.24,11.806
		c4.527-15.182,20.843-13.408,30.898-20.816c10.679-7.867,24.415-11.583,36.817-17.111c0.64,0.133,1.278,0.266,1.916,0.397
		c-9.735,5.215-19.472,10.431-29.207,15.646C134.393,186.115,127.998,189.473,121.603,192.833z"/>
	<path fill-rule="evenodd" clip-rule="evenodd" fill="#8F7C48" d="M217.539,141.034c0.97,1.308,1.94,2.616,2.91,3.925
		c-3.759,2.329-7.519,4.659-11.271,6.991c-1.539,0.662-3.083,1.321-4.628,1.98c-0.7,0.434-1.401,0.87-2.102,1.304
		c-6.525,2.971-13.051,5.94-19.576,8.911c-0.546-0.532-1.092-1.065-1.638-1.597c3.44-2.371,6.881-4.743,10.323-7.114
		c0.938-0.494,1.877-0.986,2.815-1.478c7.299-4.327,14.599-8.655,21.897-12.982C216.699,140.857,217.122,140.877,217.539,141.034z"
		/>
	<path fill-rule="evenodd" clip-rule="evenodd" fill="#F3E6CE" d="M191.557,155.435c-3.441,2.371-6.882,4.743-10.323,7.114
		c-3.746,1.52-7.492,3.041-11.239,4.561c-0.638-0.132-1.276-0.265-1.916-0.397C175.904,162.952,183.73,159.193,191.557,155.435z"/>
	<path fill-rule="evenodd" clip-rule="evenodd" fill="#F3E6CE" d="M216.269,140.975c-7.298,4.327-14.598,8.655-21.897,12.982
		C198.946,145.034,207.678,143.123,216.269,140.975z"/>
	<path fill-rule="evenodd" clip-rule="evenodd" fill="#8F7C48" d="M217.772,139.893c0.414,0.058,0.784,0.219,1.108,0.482
		c-0.27,0.412-0.644,0.587-1.126,0.53C217.667,140.566,217.672,140.229,217.772,139.893z"/>
	<path fill-rule="evenodd" clip-rule="evenodd" fill="#53391F" d="M139.347,278.417c-1.386,0.235-2.771,0.47-4.16,0.703
		c-3.755-5.842-7.506-11.687-11.256-17.529c1.76,0.36,3.518,0.718,5.274,1.076c0.274,0.123,0.396,0.333,0.365,0.633
		c0.367,0.744,0.734,1.489,1.101,2.233C133.563,269.826,136.456,274.122,139.347,278.417z"/>
	<path fill-rule="evenodd" clip-rule="evenodd" fill="#7D632C" d="M129.207,262.666c-1.758-0.358-3.516-0.716-5.275-1.076
		c-2.696-4.385-5.391-8.769-8.084-13.152c1.406-0.238,2.811-0.475,4.215-0.713C123.11,252.706,126.158,257.686,129.207,262.666z"/>
	<path fill-rule="evenodd" clip-rule="evenodd" fill="#E9DF9D" d="M209.17,151.948c3.76-2.329,7.519-4.66,11.278-6.988
		c0.972-0.474,1.943-0.946,2.915-1.417c1.527-0.81,3.054-1.621,4.581-2.432c6.12-2.175,12.239-4.35,17.272-6.138
		c4.985,5.708,8.199,9.389,11.413,13.068c1.005,2.926,2.01,5.851,3.014,8.777c-2.332,1.411-4.663,2.822-7.307,4.423
		c0.517-3.501,0.939-6.373,1.456-9.878c-7.435-1.615-14.078-3.057-21.229-4.61c0,9.628,0,18.118,0,26.776
		c-7.132,0-14.105,0-21.078,0c-0.805,13.651-1.57,26.609-2.323,39.365c-6.946-1.223-10.756-1.894-14.701-2.588
		c-3.54,11.263-12.377,19.978-7.313,31.968c0,3.378,0,6.756-0.001,10.134c-1.446,3.862-2.894,7.725-4.341,11.587
		c-1.65,3.412-3.298,6.825-5.296,10.957c3.559,1.53,5.875,2.525,8.189,3.521c0.483,4.345,0.966,8.689,1.45,13.033
		c-1.027,1.138-2.054,2.278-3.556,3.945c1.648,0.855,2.602,1.351,3.555,1.846c0.709,2.218,1.418,4.437,1.661,5.196
		c4.284-2.503,7.827-4.574,11.372-6.646c1.447,0.484,2.895,0.967,4.342,1.451c0.649,5.322,1.299,10.646,1.809,14.814
		c-2.12,3.105-3.413,5.001-4.706,6.896c-3.854,2.91-7.709,5.82-11.564,8.73c-1.605-6.123-3.21-12.246-5.519-21.048
		c-2.3,5.653-3.504,8.614-4.788,11.769c-3.208,0-6.194,0-10.167,0c1.13-5.017,2.1-9.327,3.206-14.242
		c-5.379-2.151-10.5-4.198-18.284-7.311c6.646-5.624,11.715-9.915,18.152-15.362c-1.775-8.682-19.836-4.248-18.822-17.538
		c1.449-0.866,2.898-1.729,4.348-2.593c0.188-0.364,0.487-0.562,0.894-0.596c1.389,0.309,2.778,0.617,4.528,1.005
		c0-2.453,0-4.221,0-5.988c-0.052-2.513-0.105-5.025-0.158-7.538c1.785-2.777,3.57-5.553,5.526-8.596
		c-2.855-1.427-4.649-2.323-6.444-3.22c2.421-0.866,4.843-1.731,7.511-2.684c1.091-2.951,2.238-6.05,3.357-9.075
		c2.6-0.932,4.813-1.724,7.675-2.749c2.588-13.276,5.187-26.605,8.39-43.038c6.872-2.455,16.545-5.911,25.684-9.177
		C217.736,161.499,214.956,156.164,209.17,151.948z"/>
	<path fill-rule="evenodd" clip-rule="evenodd" fill="#8F7C48" d="M227.944,141.11c-1.527,0.812-3.054,1.622-4.581,2.432
		C224.891,142.731,226.418,141.921,227.944,141.11z"/>
	<path fill-rule="evenodd" clip-rule="evenodd" fill="#E4D888" d="M190.063,327.74c3.854-2.911,7.709-5.821,11.563-8.731
		c2.897,0.004,5.795,0.007,8.693,0.011c2.895,0.003,5.791,0.005,8.685,0.008c1.908-0.882,3.815-1.765,2.503-1.157
		c7.448,0.465,11.611,0.726,15.774,0.986c9.406,3.46,15.11-11.059,26.401-3.148c1.87-6.103,3.304-10.785,4.737-15.465
		c-0.385-1.87-0.771-3.739-1.155-5.608c1.185-5.818,2.368-11.636,3.662-17.988c10.41-1.489,6.216-10.935,8.408-17.489
		c6.785-2.854,13.499-5.68,20.193-8.495c0.584-4.042,1.122-7.765,1.572-10.882c-9.005-2.777-17.58-5.423-26.982-8.322
		c0.239-1.936,0.568-4.603,0.781-6.333c6.229-2.202,11.253-3.978,15.342-5.422c3.209,2.459,5.889,4.512,8.568,6.566
		c1.364,1.483,2.729,2.968,4.094,4.453c1.563,3.357,3.127,6.714,4.69,10.071c2.102,3.364,4.204,6.731,6.307,10.096
		c7.065,12.743,14.132,25.485,21.196,38.227c1.218,2.206,2.437,4.41,3.653,6.616c1.585,3.386,3.17,6.771,4.754,10.157
		c-8.268-2.501-16.537-9.374-24.798,0.013c-1.381,0.498-2.764,0.997-4.147,1.495c-7.925,4.899-9.087,13.497-7.738,20.747
		c1.502,8.079,7.014,15.13,16.445,16.938c6.739,11.112,10.287,26.073,28.361,23.511c-16.702,8.569-33.405,17.138-50.107,25.707
		c-14.051,6.685-28.101,13.369-42.15,20.054c-3.324,2.275-6.646,4.551-9.971,6.825c-3.855,1.25-7.711,2.499-11.565,3.749
		c-3.295-4.431-6.591-8.859-9.887-13.288c1.467-1.08,2.934-2.16,6.152-4.53c-5.027-1.832-7.979-2.908-10.932-3.986
		c-0.477-0.443-0.953-0.888-1.429-1.332c-1.122-1.459-2.244-2.918-3.367-4.379c-11.75-17.023-23.499-34.047-35.248-51.07
		c-0.423-0.555-0.846-1.11-1.27-1.664l0.005-0.226c-0.66-1.734-1.32-3.468-1.979-5.202c2.616-0.803,5.232-1.604,8.085-2.481
		C188.716,333.537,189.39,330.638,190.063,327.74z"/>
	<path fill-rule="evenodd" clip-rule="evenodd" fill="#E6DB99" d="M223.167,403.125c2.953,1.078,5.905,2.154,10.932,3.986
		c-3.219,2.37-4.685,3.45-6.152,4.53C226.354,408.803,224.761,405.965,223.167,403.125z"/>
	<path fill-rule="evenodd" clip-rule="evenodd" fill="#E6DB99" d="M218.371,397.414c1.123,1.461,2.245,2.92,3.367,4.379
		C220.615,400.334,219.493,398.875,218.371,397.414z"/>
	<path fill-rule="evenodd" clip-rule="evenodd" fill="#645232" d="M181.854,344.68c0.423,0.554,0.847,1.109,1.27,1.664
		C182.7,345.789,182.277,345.233,181.854,344.68z"/>
	<path fill-rule="evenodd" clip-rule="evenodd" fill="#E2D5A0" d="M158.188,261.415c-1.449,0.864-2.898,1.728-4.347,2.593
		c-3.09,0.148-6.179,0.298-10.3,0.498c1.506,3.337,2.334,5.172,3.659,8.107c-1.708,2.282-3.659,4.888-5.611,7.496
		c-0.747-0.563-1.494-1.127-2.242-1.69c-2.892-4.296-5.784-8.592-8.676-12.887c-0.367-0.744-0.734-1.488-1.101-2.231
		c0.031-0.3-0.09-0.51-0.365-0.633c-3.047-4.98-6.095-9.96-9.143-14.941c-10.721-18.795-30.028-38.427,5.15-52.74
		c0.8-0.267,1.599-0.535,2.397-0.802c3.134,1.287,6.268,2.572,8.073,3.313c3.296-3.599,5.893-6.432,8.726-9.525
		c1.458,6.292,2.53,10.917,3.771,16.263c-5.622-1.551-10.359-3.958-13.256,2.114c-4.948,0.291-9.895,0.583-14.842,0.874
		c-5.246,11.952-4.922,22.918,5.46,32.789c2.394-1.915,4.321-3.456,6.248-4.997c0.406-1.469,0.812-2.938,1.163-4.211
		c3.31-0.265,6.534-0.522,9.76-0.781c0.831,1.686,1.661,3.37,2.492,5.054c-3.46,2.154-6.92,4.307-13.586,8.458
		c6.613,0,9.818,0,13.232,0c0.122,1.343,0.271,2.983,0.42,4.624c0.303,2.097,0.606,4.194,0.908,6.291
		c2.058,2.146,4.116,4.289,6.174,6.434C154.298,261.06,156.243,261.236,158.188,261.415z"/>
	<path fill-rule="evenodd" clip-rule="evenodd" fill="#E6DB99" d="M141.589,280.108c1.952-2.607,3.903-5.213,5.611-7.496
		c-1.325-2.935-2.153-4.77-3.659-8.107c4.121-0.199,7.21-0.349,10.3-0.498c-1.014,13.291,17.047,8.856,18.822,17.538
		c-6.437,5.447-11.506,9.738-18.152,15.362c7.783,3.112,12.905,5.16,18.284,7.311c-1.106,4.915-2.076,9.225-3.206,14.242
		c3.973,0,6.958,0,10.167,0c1.283-3.155,2.488-6.116,4.788-11.769c2.309,8.802,3.914,14.925,5.519,21.048
		c-0.673,2.898-1.347,5.798-2.099,9.031c-2.853,0.877-5.469,1.679-8.085,2.481C167.116,319.537,154.352,299.822,141.589,280.108z"/>
	<path fill-rule="evenodd" clip-rule="evenodd" fill="#E0D399" d="M351.627,368.595c-18.074,2.563-21.622-12.398-28.361-23.511
		c0-1.344,0.001-2.688,0.001-4.031c0.646-0.665,1.292-1.33,1.938-1.994c1.366-2.153,2.731-4.308,4.332-6.83
		c7.88,3.272,11.63-1.188,14.177-7.473c-0.604-2.658-1.117-4.918-1.631-7.178c-2.885-1.919-5.77-3.838-8.654-5.756
		c-1.463-1.037-2.925-2.072-4.388-3.108c10.18,0.555,18.688,3.022,17.383,16.832c1.486-1.833,2.196-2.707,2.905-3.582
		c0.453,3.876,0.907,7.753,1.36,11.631c-6.601,3.546-13.201,7.093-28.659,15.398c13.172-3.017,16.292-3.73,19.665-4.504
		c0.192,1.67,0.383,3.305,0.571,4.94c0.334,2.152,0.667,4.305,1,6.457c0.911,1.803,1.82,3.606,2.73,5.411
		c1.908,0.26,3.816,0.519,5.725,0.779c1.643-0.849,3.286-1.697,4.928-2.544c0.825-3.024,1.652-6.051,2.478-9.075
		c-0.931,0.485-1.862,0.972-2.793,1.458l-0.055,0.151c-0.563,1.124-1.126,2.248-1.688,3.371c-1.741,0.326-3.481,0.654-5.222,0.981
		c-0.023-3.771-0.046-7.54-0.069-11.31l0.048-0.063c2.476-2.867,4.951-5.733,7.426-8.6c1.541,0.276,3.082,0.553,4.623,0.83
		c0.189,0.952,0.377,1.905,0.563,2.86c0.705,1.04,1.412,2.083,2.12,3.123c0,0,0.109,0.169,0.107,0.169
		c0.496,4.567,0.993,9.132,1.49,13.697c-2.146,2.695-4.293,5.391-6.44,8.084C356.7,366.34,354.163,367.467,351.627,368.595z"/>
	<path fill-rule="evenodd" clip-rule="evenodd" fill="#E7DB8D" d="M298.81,226.271c-2.68-2.055-5.359-4.107-8.568-6.566
		c-4.089,1.445-9.112,3.221-15.342,5.422c-0.213,1.731-0.542,4.398-0.781,6.333c9.402,2.899,17.978,5.544,26.982,8.322
		c-0.45,3.118-0.988,6.841-1.572,10.882c-6.694,2.815-13.408,5.641-20.193,8.495c-2.192,6.554,2.002,16-8.408,17.489
		c-1.294,6.352-2.478,12.169-3.66,17.985c-8.851-4.849-17.702-9.695-26.554-14.541c-0.628-1.002-1.255-2.007-2.415-3.86
		c-0.905,2.058-1.396,3.173-1.885,4.289c-0.435,0.287-0.871,0.574-1.305,0.861c-5.754,1.212-8.347,12.227-17.08,5.071
		c0-6.01,0-12.319,0-18.63c1.489-2.629,2.979-5.256,4.479-7.903c9.081,2.614,15.042-1.109,15.789-9.521
		c1.28-14.432-10.104-16.32-20.669-18.358c-3.898-1.067-7.797-2.134-11.695-3.201c2.663-0.789,5.325-1.578,8.465-2.507
		c-0.875-2.623-1.584-4.747-2.156-6.459c5.791-13.883,18.849-3.556,27.544-9.7c2.218-3.147,4.978-7.063,7.433-10.547
		c-1.216-5.943-2.347-11.469-3.455-16.883c9.547-2.497,18.323-4.792,27.099-7.087c1.562,1.447,3.124,2.894,4.685,4.34l-0.031-0.063
		C283.279,195.379,291.045,210.825,298.81,226.271z"/>
	<path fill-rule="evenodd" clip-rule="evenodd" fill="#645232" d="M307.594,240.795c-1.563-3.357-3.127-6.714-4.69-10.071
		c0.935-0.005,1.868-0.01,2.803-0.015c1.701,3.341,3.401,6.684,5.101,10.025C309.735,240.755,308.665,240.775,307.594,240.795z"/>
	<path fill-rule="evenodd" clip-rule="evenodd" fill="#3B382F" d="M335.097,289.118c-7.064-12.742-14.131-25.484-21.194-38.226
		c1.237-0.082,2.473-0.164,3.709-0.246c0.943,0.631,1.886,1.261,2.828,1.891c0.528,0.331,1.059,0.662,1.589,0.993
		c1.498,7.651,2.579,15.571,11.216,17.578c1.981,5.571,3.677,10.334,5.37,15.098c0.158,1.31,0.317,2.62,0.55,4.553
		C337.535,290.102,336.316,289.61,335.097,289.118z"/>
	<path fill-rule="evenodd" clip-rule="evenodd" fill="#3B382F" d="M343.504,305.891c-1.584-3.385-3.169-6.771-4.754-10.157
		c13.28,3.491,11.124,18.584,19.41,25.828c-0.112,1.672-0.226,3.345-0.339,5.015c-0.396-0.192-0.816-0.284-1.257-0.276
		c-2.384-3.419-4.767-6.838-7.15-10.257C347.444,312.659,345.475,309.275,343.504,305.891z"/>
	<path fill-rule="evenodd" clip-rule="evenodd" fill="#321C12" d="M357.821,326.578c0.113-1.671,0.227-3.344,0.339-5.016
		c0.549,0.983,1.098,1.967,1.647,2.95c-0.156,2.566-0.312,5.13-0.467,7.695c-0.456-0.142-0.92-0.192-1.395-0.151
		c-0.145-1.427-0.288-2.854-0.433-4.282C357.81,327.426,357.912,327.026,357.821,326.578z"/>
	<path fill-rule="evenodd" clip-rule="evenodd" fill="#B49E66" d="M365.676,357.127c-0.497-4.565-0.994-9.13-1.49-13.697
		c1.327,4.58,2.652,9.16,3.977,13.739C367.333,357.155,366.505,357.141,365.676,357.127z"/>
	<path fill-rule="evenodd" clip-rule="evenodd" fill="#B49E66" d="M357.946,332.057c0.475-0.041,0.938,0.01,1.395,0.151
		c0.684,1.692,1.367,3.384,2.053,5.071c-1.539-0.279-3.08-0.556-4.623-0.834C357.161,334.983,357.554,333.52,357.946,332.057z"/>
	<path fill-rule="evenodd" clip-rule="evenodd" fill="#B49E66" d="M364.078,343.261c-0.708-1.04-1.415-2.083-2.12-3.123
		C362.667,341.178,363.373,342.219,364.078,343.261z"/>
	<path fill-rule="evenodd" clip-rule="evenodd" fill="#8F7C48" d="M317.611,250.646c-1.236,0.082-2.472,0.164-3.709,0.246
		c-2.104-3.367-4.207-6.733-6.309-10.098c1.071-0.02,2.142-0.04,3.213-0.061c1.581,1.612,3.161,3.223,4.741,4.834
		C316.235,247.261,316.923,248.954,317.611,250.646z"/>
	<path fill-rule="evenodd" clip-rule="evenodd" fill="#8F7C48" d="M322.028,253.53c-0.53-0.331-1.061-0.662-1.589-0.993
		C320.971,252.868,321.499,253.199,322.028,253.53z"/>
	<path fill-rule="evenodd" clip-rule="evenodd" fill="#EBDF99" d="M270.861,175.656c-8.775,2.295-17.552,4.59-27.099,7.087
		c1.108,5.414,2.239,10.94,3.455,16.883c-2.455,3.484-5.215,7.4-7.433,10.547c-8.695,6.144-21.753-4.183-27.544,9.7
		c0.572,1.712,1.281,3.836,2.156,6.459c-3.14,0.929-5.802,1.718-8.465,2.507c-1.043,0.327-2.087,0.652-3.131,0.979l-0.417,0.25
		c-0.713,0.25-1.425,0.499-2.139,0.75c-1.963-1.117-3.926-2.233-7.681-4.367c-2.079,6.075-3.747,10.947-5.416,15.821
		c-5.065-11.991,3.772-20.706,7.313-31.968c3.945,0.694,7.755,1.365,14.701,2.588c0.753-12.756,1.518-25.714,2.323-39.365
		c6.973,0,13.946,0,21.078,0c0-8.658,0-17.148,0-26.776c7.151,1.553,13.794,2.995,21.229,4.61c-0.517,3.505-0.939,6.377-1.456,9.878
		c2.644-1.601,4.975-3.012,7.307-4.423c3.563,5.333,7.127,10.665,10.691,15.997C270.512,173.762,270.687,174.709,270.861,175.656z"
		/>
	<path fill-rule="evenodd" clip-rule="evenodd" fill="#8F7C48" d="M270.861,175.656c-0.175-0.947-0.35-1.895-0.526-2.842
		c1.015,0.199,2.031,0.398,3.043,0.6c0.738,1.251,1.479,2.5,2.221,3.75c-0.018,0.944-0.035,1.888-0.053,2.832
		C273.985,178.55,272.423,177.103,270.861,175.656z"/>
	<path fill-rule="evenodd" clip-rule="evenodd" fill="#645232" d="M127.61,194.183c-0.799,0.267-1.598,0.535-2.397,0.802
		c-1.203-0.717-2.406-1.435-3.609-2.152c6.395-3.359,12.79-6.718,19.185-10.078c0.079,1.229,0.157,2.458,0.236,3.687
		C136.553,189.022,132.082,191.603,127.61,194.183z"/>
	<path fill-rule="evenodd" clip-rule="evenodd" fill="#7D632C" d="M141.023,186.441c-0.079-1.229-0.156-2.458-0.235-3.687
		c9.735-5.215,19.472-10.431,29.207-15.646c3.747-1.52,7.493-3.041,11.239-4.561c0.546,0.532,1.092,1.065,1.638,1.597
		c-1.958,1.432-3.917,2.863-5.875,4.296c-0.956,0.52-1.911,1.041-2.867,1.561c-0.97,0.459-1.941,0.92-2.912,1.38
		c-4.331,1.956-8.661,3.911-12.992,5.867c-1.111,0.863-2.221,1.725-3.332,2.589C150.271,182.04,145.647,184.24,141.023,186.441z"/>
	<path fill-rule="evenodd" clip-rule="evenodd" fill="#EADFA0" d="M176.996,168.441c1.958-1.433,3.917-2.864,5.875-4.296
		c6.525-2.971,13.051-5.94,19.579-8.911c0.702-0.436,1.4-0.87,2.099-1.304c1.545-0.659,3.089-1.318,4.628-1.98
		c5.778,4.214,8.559,9.549,5.974,17.81c-9.139,3.267-18.813,6.723-25.684,9.177c-3.204,16.433-5.802,29.761-8.39,43.038
		c-2.863,1.025-5.076,1.817-7.675,2.749c-1.119,3.025-2.266,6.124-3.357,9.075c-2.667,0.953-5.089,1.818-7.511,2.684
		c-1.927-0.003-3.854-0.006-5.782-0.007c-0.003-0.964-0.006-1.927-0.009-2.892c0.482-1.93,0.964-3.862,1.446-5.792
		c-0.275-4.009-0.551-8.018-0.844-12.289c7.447-6.024,14.931-12.077,22.731-18.388c-10.099-9.931,4.463-16.871,5.667-25.939
		C182.317,170.105,179.657,169.272,176.996,168.441z"/>
	<path fill-rule="evenodd" clip-rule="evenodd" fill="#E9DF9D" d="M204.549,153.93c-0.699,0.434-1.397,0.868-2.099,1.304
		C203.148,154.8,203.849,154.364,204.549,153.93z"/>
	<path fill-rule="evenodd" clip-rule="evenodd" fill="#7D632C" d="M129.57,263.299c0.367,0.744,0.734,1.487,1.101,2.231
		C130.304,264.788,129.938,264.043,129.57,263.299z"/>
	<path fill-rule="evenodd" clip-rule="evenodd" fill="#E7DD96" d="M187.149,242.274c1.668-4.874,3.337-9.747,5.416-15.821
		c3.754,2.134,5.718,3.25,7.681,4.367c-0.575,3.843-1.149,7.687-1.724,11.53c-0.345,2.131-0.69,4.262-1.035,6.393
		c0.076,1.72,0.151,3.44,0.227,5.16c-0.611,0.187-1.222,0.372-3.189,0.97c2.136,0.191,2.765,0.246,3.395,0.303l0.247,0.568
		c-2.705,4.086-5.409,8.174-7.087,10.708c-3.434,11.392,2.659,17.863,7.48,24.229c12.654,2.613,14.305,12.957,17.79,20.63
		c-2.719,3.477-4.375,5.593-6.029,7.709c-2.898-0.004-5.796-0.007-8.693-0.011c1.293-1.895,2.586-3.791,4.706-6.896
		c-0.509-4.168-1.159-9.492-1.809-14.814c-0.489-0.955-0.979-1.911-1.642-3.205c-1.208,0.785-1.954,1.27-2.7,1.753
		c-3.544,2.072-7.088,4.143-11.372,6.646c-0.243-0.759-0.952-2.978-1.661-5.196c0-1.93,0-3.86,0.001-5.791
		c-0.484-4.344-0.967-8.688-1.45-13.033c0.001-4.342,0.001-8.687,0.001-13.03c0.482-4.345,0.964-8.689,1.446-13.035
		C187.148,249.03,187.149,245.652,187.149,242.274z"/>
	<path fill-rule="evenodd" clip-rule="evenodd" fill="#E6DB99" d="M156.752,236.475c1.927,0.001,3.854,0.004,5.782,0.007
		c1.795,0.896,3.589,1.793,6.444,3.22c-1.956,3.043-3.741,5.818-5.524,8.594c-2.18,2.363-4.362,4.726-6.544,7.088l-0.083,0.083
		c-1.469-0.102-2.938-0.202-4.406-0.304c-0.019-3.783-0.036-7.565-0.055-11.346l0.123-0.171
		C153.911,241.256,155.332,238.865,156.752,236.475z"/>
	<path fill-rule="evenodd" clip-rule="evenodd" fill="#E6DB99" d="M185.702,265.443c0,4.344,0,8.688-0.001,13.03
		c-2.315-0.996-4.63-1.991-8.189-3.521c1.998-4.132,3.646-7.545,5.296-10.957C183.771,264.477,184.736,264.959,185.702,265.443z"/>
	<path fill-rule="evenodd" clip-rule="evenodd" fill="#8F7C48" d="M156.911,255.385c2.182-2.363,4.364-4.726,6.544-7.088
		c0.051,2.514,0.104,5.027,0.159,7.542c-1.338,1.097-2.678,2.192-4.018,3.288c-0.064-0.905-0.128-1.809-0.212-2.998
		C158.573,255.886,157.742,255.635,156.911,255.385z"/>
	<path fill-rule="evenodd" clip-rule="evenodd" fill="#EBDF99" d="M185.702,265.443c-0.965-0.483-1.93-0.966-2.895-1.448
		c1.447-3.862,2.895-7.725,4.341-11.587C186.666,256.754,186.184,261.098,185.702,265.443z"/>
	<path fill-rule="evenodd" clip-rule="evenodd" fill="#7D632C" d="M156.911,255.385c0.832,0.25,1.662,0.501,2.473,0.744
		c0.084,1.189,0.148,2.093,0.211,3c-0.171,0.564-0.342,1.127-0.512,1.689c-0.407,0.034-0.706,0.232-0.894,0.596
		c-1.945-0.178-3.89-0.355-5.835-0.533c0.132-0.977,0.263-1.954,0.392-2.929c1.359-0.827,2.721-1.656,4.083-2.484L156.911,255.385z"
		/>
	<path fill-rule="evenodd" clip-rule="evenodd" fill="#E6DB99" d="M187.15,291.506c-0.001,1.93-0.001,3.86-0.001,5.791
		c-0.954-0.495-1.907-0.99-3.555-1.846C185.097,293.784,186.124,292.645,187.15,291.506z"/>
	<path fill-rule="evenodd" clip-rule="evenodd" fill="#E6DB99" d="M159.083,260.819c0.17-0.563,0.341-1.125,0.512-1.689
		c1.341-1.099,2.681-2.193,4.019-3.291c-0.003,1.765-0.003,3.532-0.003,5.985C161.86,261.436,160.471,261.127,159.083,260.819z"/>
	<path fill-rule="evenodd" clip-rule="evenodd" fill="#E6DB99" d="M200.182,295.847c0.746-0.483,1.492-0.968,2.7-1.753
		c0.664,1.294,1.153,2.25,1.642,3.205C203.077,296.814,201.629,296.331,200.182,295.847z"/>
	<path fill-rule="evenodd" clip-rule="evenodd" fill="#E2D790" d="M210.32,319.021c1.654-2.117,3.31-4.232,6.029-7.709
		c-3.485-7.674-5.136-18.018-17.79-20.63c-4.821-6.366-10.914-12.838-7.48-24.229c1.678-2.534,4.382-6.622,7.085-10.706
		c0.669,0.857,1.341,1.711,2.013,2.566c0.181,0.878,0.362,1.755,0.543,2.633c1.288,1.444,2.577,2.886,3.865,4.33
		c4.481,0.85,8.963,1.7,13.444,2.55c0,6.311,0,12.62,0,18.63c8.733,7.156,11.326-3.859,17.08-5.071
		c-0.936,6.247-1.871,12.494-2.806,18.742c-0.009,0.527-0.019,1.055-0.028,1.583c-0.663,3.812-1.325,7.626-1.987,11.439
		c-3.099-1.393-6.2-2.784-11.282-5.066c0,4.776,0,7.862,0,10.947C216.11,319.026,213.215,319.023,210.32,319.021z"/>
	<path fill-rule="evenodd" clip-rule="evenodd" fill="#321C12" d="M230.287,313.148c0.662-3.813,1.324-7.627,1.986-11.439
		c1.367,3.713,2.733,7.426,4.713,12.808c5.051-2.104,9.478-3.949,16.918-7.05c0.006,0,3.526-0.168,7.46-0.358
		c0.983-2.543,1.821-4.715,2.66-6.888c1.465,0.009,2.93,0.016,4.395,0.024c-1.434,4.68-2.867,9.362-4.737,15.465
		c-11.291-7.911-16.995,6.608-26.402,3.149C234.949,316.956,232.618,315.051,230.287,313.148z"/>
	<path fill-rule="evenodd" clip-rule="evenodd" fill="#6B3C15" d="M268.42,300.245c-1.465-0.009-2.93-0.016-4.396-0.024
		c-7.104-7.764-14.344-15.259-26.086-13.983c-2.071,5.102-3.854,9.495-5.637,13.887c0.935-6.248,1.871-12.495,2.806-18.742
		c0.435-0.287,0.87-0.574,1.305-0.863c1.433-0.144,2.866-0.286,4.3-0.427c8.852,4.846,17.703,9.691,26.554,14.541
		C267.649,296.506,268.035,298.375,268.42,300.245z"/>
	<path fill-rule="evenodd" clip-rule="evenodd" fill="#E8DEA6" d="M343.504,305.891c1.971,3.384,3.94,6.768,5.91,10.151
		c-0.029,1.974-0.058,3.946-0.086,5.92c-0.709,0.875-1.419,1.749-2.905,3.582c1.305-13.81-7.203-16.277-17.383-16.832
		c-3.371-0.193-6.743-0.387-10.114-0.581c-0.074-0.742-0.147-1.486-0.222-2.23C326.967,296.518,335.236,303.39,343.504,305.891z"/>
	<path fill-rule="evenodd" clip-rule="evenodd" fill="#E2D5A0" d="M323.267,341.053c0,1.343-0.001,2.688-0.001,4.031
		c-9.432-1.809-14.943-8.859-16.445-16.938c-1.349-7.25-0.187-15.848,7.738-20.747c0.095,0.667,0.189,1.335,0.283,2.002
		c-1.856,10.069-6.436,20.462,3.463,29.134C319.959,339.375,321.613,340.214,323.267,341.053z"/>
	<path fill-rule="evenodd" clip-rule="evenodd" fill="#E6DB99" d="M230.287,313.148c2.331,1.903,4.662,3.808,6.993,5.711
		c-4.161-0.262-8.324-0.522-15.772-0.987c1.313-0.608-0.595,0.274-2.503,1.157c0-3.085,0-6.171,0-10.947
		C224.087,310.364,227.188,311.755,230.287,313.148z"/>
	<path fill-rule="evenodd" clip-rule="evenodd" fill="#E0D399" d="M314.842,309.401c-0.094-0.667-0.188-1.335-0.283-2.002
		c1.384-0.498,2.767-0.997,4.147-1.495c0.072,0.743,0.146,1.486,0.22,2.229c-0.94,0.313-1.883,0.625-2.823,0.938
		C315.675,309.15,315.255,309.261,314.842,309.401z"/>
	<path fill-rule="evenodd" clip-rule="evenodd" fill="#E8DEA6" d="M176.996,168.441c2.661,0.831,5.321,1.664,8.748,2.734
		c-1.204,9.068-15.767,16.008-5.667,25.939c-7.8,6.311-15.284,12.364-22.731,18.388c0.293,4.271,0.568,8.28,0.844,12.289
		c-0.977,1.407-1.953,2.814-2.93,4.223c-0.415-0.019-0.828-0.006-1.239,0.037l-0.128-0.104c-0.983-1.869-1.965-3.737-2.948-5.606
		l0.011,0.011c-1.334-4.368-2.669-8.734-4.003-13.102l-0.191-0.334c-0.846-0.739-1.691-1.479-2.537-2.219
		c-1.627-0.55-3.253-1.099-4.88-1.647c-1.474-0.901-2.948-1.802-4.422-2.702c2.898-6.072,7.636-3.666,13.257-2.114
		c-1.24-5.346-2.312-9.97-3.771-16.263c-2.833,3.093-5.43,5.926-8.726,9.525c-1.806-0.741-4.939-2.026-8.073-3.313
		c4.472-2.581,8.943-5.161,13.414-7.742c4.624-2.202,9.247-4.402,13.87-6.604c1.111-0.864,2.222-1.727,3.332-2.589
		c4.331-1.956,8.662-3.911,12.993-5.867c0.97-0.459,1.941-0.92,2.911-1.38C175.085,169.481,176.041,168.961,176.996,168.441z"/>
	<path fill-rule="evenodd" clip-rule="evenodd" fill="#5E441E" d="M152.748,257.95c-0.131,0.977-0.263,1.954-0.395,2.931
		c-2.058-2.145-4.116-4.289-6.173-6.435c-0.302-2.097-0.606-4.193-0.91-6.29c-0.149-1.64-0.298-3.28-0.42-4.624
		c-3.415,0-6.619,0-13.232,0c6.666-4.15,10.125-6.304,13.585-8.458c2.896-1.042,5.792-2.085,8.689-3.128l0.128,0.104
		c-0.511,3.866-1.021,7.73-1.53,11.596c0,0-0.123,0.171-0.122,0.17c-1.361,2.334-2.722,4.67-4.083,7.005
		c0.458,1.04,0.915,2.077,1.372,3.115c0.423,0.515,0.845,1.029,1.267,1.542C151.532,256.304,152.14,257.127,152.748,257.95z"/>
	<path fill-rule="evenodd" clip-rule="evenodd" fill="#5B3511" d="M142.712,230.021c-3.226,0.259-6.45,0.516-9.76,0.781
		c-0.352,1.272-0.757,2.742-1.163,4.211c-3.134-1.639-6.269-3.276-9.405-4.913c4.218-2.197,8.438-4.399,12.659-6.601
		c2.35,4.359,4.781,4.212,7.281,0.13c0.012-1.996,0.024-3.989,0.036-5.983c1.391-0.956,2.782-1.91,4.173-2.865
		c0.587,2.439,1.173,4.878,1.893,7.869C146.625,224.977,144.668,227.499,142.712,230.021z"/>
	<path fill-rule="evenodd" clip-rule="evenodd" fill="#53391F" d="M122.387,230.098c3.134,1.639,6.268,3.276,9.402,4.915
		c-1.927,1.541-3.854,3.083-6.248,4.997c-10.382-9.87-10.706-20.837-5.46-32.787c0.257,2.103,0.515,4.207,0.772,6.308
		c-0.001-0.001-0.202-0.139-0.202-0.139c-0.429,2.558-0.859,5.115-1.288,7.672c-0.022,1.134-0.044,2.267-0.066,3.399
		c0.494,0.603,0.986,1.204,1.479,1.806C121.313,227.545,121.85,228.821,122.387,230.098z"/>
	<path fill-rule="evenodd" clip-rule="evenodd" fill="#E2D790" d="M142.712,230.021c1.956-2.522,3.913-5.045,5.714-7.37
		c-0.72-2.991-1.306-5.43-1.893-7.869c0.14-0.511,0.28-1.022,0.42-1.533c1.334,4.368,2.669,8.734,4.003,13.102
		c-0.831,0.894-1.662,1.788-0.019,0.021c-0.597,2.448-0.295,1.208,0.008-0.033c0.983,1.869,1.965,3.737,2.948,5.606
		c-2.897,1.042-5.793,2.086-8.689,3.128C144.373,233.391,143.542,231.707,142.712,230.021z"/>
	<path fill-rule="evenodd" clip-rule="evenodd" fill="#5B3511" d="M120.854,213.533c-0.257-2.103-0.515-4.207-0.772-6.31
		c4.948-0.292,9.895-0.584,14.842-0.875c1.473,0.9,2.947,1.801,4.421,2.702c-0.025,1.056-0.051,2.112-0.077,3.168
		C133.129,212.656,126.992,213.094,120.854,213.533z"/>
	<path fill-rule="evenodd" clip-rule="evenodd" fill="#7D632C" d="M145.271,248.156c0.303,2.097,0.607,4.193,0.91,6.29
		C145.876,252.351,145.573,250.253,145.271,248.156z"/>
	<path fill-rule="evenodd" clip-rule="evenodd" fill="#5E441E" d="M342.266,349.429c-0.188-1.636-0.379-3.271-0.571-4.94
		c-3.373,0.773-6.493,1.487-19.665,4.504c15.458-8.306,22.059-11.853,28.66-15.398c-0.447,3.817-0.895,7.636-1.343,11.453
		l-0.048,0.063c-0.987,1.471-1.976,2.942-2.963,4.413c-0.166,0.101-0.485,0.228-0.474,0.297c0.057,0.319,0.205,0.624,0.32,0.934
		c0.074,1.046,0.148,2.093,0.223,3.139c-0.158,0.117-0.317,0.234-0.476,0.354c0.223,0.228,0.445,0.455,0.668,0.683l0.174,0.059
		c0.978,7.91,6.136,3.179,9.718,3.215c-0.012,0.451,0.041,0.896,0.159,1.331c-1.642,0.847-3.285,1.695-4.929,2.541
		c-1.909-0.262-3.816-0.519-5.724-0.776c-0.91-1.805-1.819-3.608-2.73-5.413C342.933,353.73,342.6,351.58,342.266,349.429z"/>
	<path fill-rule="evenodd" clip-rule="evenodd" fill="#5B3511" d="M342.082,317.578c0.514,2.26,1.027,4.52,1.631,7.178
		c-2.547,6.284-6.297,10.745-14.177,7.473c-1.601,2.522-2.966,4.677-4.332,6.83c-1.125-1.369-2.251-2.736-3.376-4.104
		c2.054-3.132,4.106-6.264,6.122-9.34c3.166,1.489,5.161,2.427,7.922,3.725c1.129-2.794,2.056-5.089,2.982-7.386
		C339.931,320.497,341.006,319.037,342.082,317.578z"/>
	<path fill-rule="evenodd" clip-rule="evenodd" fill="#E4D888" d="M349.347,345.047c0.448-3.817,0.896-7.636,1.343-11.453
		c-0.454-3.878-0.908-7.755-1.361-11.631c0.028-1.974,0.057-3.946,0.086-5.92c2.384,3.42,4.767,6.839,7.15,10.257
		c0.315,0.492,0.633,0.982,0.949,1.475c0.145,1.429,0.288,2.855,0.433,4.282c-0.393,1.463-0.785,2.927-1.176,4.389
		C354.298,339.313,351.822,342.18,349.347,345.047z"/>
	<path fill-rule="evenodd" clip-rule="evenodd" fill="#5B3511" d="M316.103,309.07c0.94-0.313,1.883-0.625,2.823-0.938
		c3.371,0.194,6.743,0.388,10.114,0.581c1.463,1.037,2.925,2.072,4.388,3.108c0.461,1.14,0.922,2.278,1.384,3.413
		c-5.745-0.103-11.49-0.204-17.235-0.304C317.085,312.978,316.594,311.024,316.103,309.07z"/>
	<path fill-rule="evenodd" clip-rule="evenodd" fill="#8C4813" d="M334.812,315.239c-0.462-1.14-0.923-2.278-1.384-3.417
		c2.885,1.918,5.77,3.837,8.654,5.756c-1.076,1.459-2.151,2.919-3.225,4.378C337.51,319.717,336.161,317.478,334.812,315.239z"/>
	<path fill-rule="evenodd" clip-rule="evenodd" fill="#7D632C" d="M356.489,358.201c-3.582-0.036-8.74,4.695-9.718-3.215
		c0.864,0.478,1.73,0.954,2.597,1.433c1.74-0.327,3.48-0.655,5.219-0.981c0.562-1.123,1.127-2.247,1.691-3.371
		c0,0,0.055-0.151,0.056-0.148C356.386,354.014,356.438,356.107,356.489,358.201z"/>
	<path fill-rule="evenodd" clip-rule="evenodd" fill="#E4D888" d="M349.368,356.419c-0.866-0.479-1.732-0.955-2.597-1.433
		c0,0-0.174-0.059-0.174-0.057c0.202-0.395,0.138-0.741-0.192-1.038c-0.074-1.046-0.148-2.093-0.223-3.138
		c0.279-0.382,0.331-0.792,0.153-1.231c0.987-1.471,1.976-2.942,2.963-4.413C349.322,348.879,349.345,352.648,349.368,356.419z"/>
	<path fill-rule="evenodd" clip-rule="evenodd" fill="#53391F" d="M321.828,334.955c1.125,1.367,2.251,2.734,3.376,4.104
		c-0.646,0.664-1.291,1.329-1.938,1.994c-1.653-0.839-3.308-1.678-4.961-2.518c0.211-0.238,0.422-0.48,0.632-0.721
		c0.961-0.949,1.923-1.899,2.883-2.85L321.828,334.955z"/>
	<path fill-rule="evenodd" clip-rule="evenodd" fill="#8F7C48" d="M356.489,358.201c-0.052-2.094-0.104-4.188-0.155-6.283
		c0.93-0.489,1.861-0.976,2.792-1.461c-0.825,3.024-1.652,6.051-2.478,9.075C356.53,359.097,356.478,358.652,356.489,358.201z"/>
	<path fill-rule="evenodd" clip-rule="evenodd" fill="#7D632C" d="M345.996,361.297c1.907,0.258,3.814,0.515,5.724,0.776
		C349.813,361.815,347.904,361.557,345.996,361.297z"/>
	<path fill-rule="evenodd" clip-rule="evenodd" fill="#645232" d="M342.266,349.429c0.334,2.151,0.667,4.302,1,6.455
		C342.933,353.733,342.6,351.581,342.266,349.429z"/>
	<path fill-rule="evenodd" clip-rule="evenodd" fill="#8F7C48" d="M356.278,352.066c-0.564,1.124-1.13,2.248-1.691,3.371
		C355.152,354.314,355.716,353.19,356.278,352.066z"/>
	<path fill-rule="evenodd" clip-rule="evenodd" fill="#8C4813" d="M218.028,267.824c-4.481-0.85-8.963-1.7-13.445-2.55
		c-0.066-0.875-0.132-1.75-0.198-2.624l0.474-0.421c2.235,0.69,4.47,1.38,7.522,2.323c2.378-3.593,4.557-6.886,7.157-10.816
		c3.69,0,7.873,0,12.25,0c0-3.911,0-6.506,0-9.497c-7.916-5.997-16.034-10.858-26.981-8.417c-0.622,3.859-1.19,7.386-1.759,10.914
		c-0.221-5.556-0.442-11.111-0.664-16.667c0,0,0.417-0.25,0.418-0.246c4.942,0.742,9.884,1.48,14.825,2.218
		c10.565,2.038,21.949,3.927,20.669,18.358c-0.747,8.412-6.708,12.135-15.789,9.521
		C221.007,262.568,219.518,265.195,218.028,267.824z"/>
	<path fill-rule="evenodd" clip-rule="evenodd" fill="#7D632C" d="M217.627,232.042c-4.941-0.738-9.883-1.476-14.825-2.218
		c1.043-0.331,2.086-0.656,3.13-0.983C209.831,229.908,213.729,230.975,217.627,232.042z"/>
	<path fill-rule="evenodd" clip-rule="evenodd" fill="#E2D790" d="M240.713,280.094c-1.434,0.141-2.867,0.283-4.3,0.427
		c0.49-1.114,0.98-2.229,1.885-4.287C239.458,278.087,240.085,279.091,240.713,280.094z"/>
	<path fill-rule="evenodd" clip-rule="evenodd" fill="#B49E66" d="M357.514,327.774c-0.316-0.492-0.634-0.982-0.949-1.475
		c0.44-0.007,0.86,0.085,1.257,0.277C357.912,327.026,357.81,327.426,357.514,327.774z"/>
	<path fill-rule="evenodd" clip-rule="evenodd" fill="#7D632C" d="M202.384,230.07c0.221,5.556,0.442,11.111,0.665,16.666
		c-0.031,2.346-0.06,4.692-0.091,7.039c-0.927,1.512-1.854,3.024-2.781,4.538c-0.671-0.855-1.343-1.709-2.013-2.566
		c0.002-0.003-0.245-0.571-0.248-0.57c0.122-0.454,0.056-0.879-0.203-1.274c-0.076-1.72-0.151-3.44-0.226-5.163
		c0.345-2.133,0.69-4.262,1.034-6.39c0.575-3.843,1.149-7.687,1.724-11.53C200.958,230.569,201.671,230.32,202.384,230.07z"/>
	<path fill-rule="evenodd" clip-rule="evenodd" fill="#E0D399" d="M158.226,177.249c-1.11,0.863-2.221,1.725-3.332,2.589
		C156.004,178.974,157.115,178.111,158.226,177.249z"/>
	<path fill-rule="evenodd" clip-rule="evenodd" fill="#EADFA0" d="M174.129,170.002c-0.97,0.459-1.941,0.92-2.911,1.38
		C172.188,170.922,173.159,170.461,174.129,170.002z"/>
	<path fill-rule="evenodd" clip-rule="evenodd" fill="#E2D790" d="M152.49,243.647c0.51-3.866,1.02-7.73,1.53-11.596
		c0.411-0.042,0.824-0.055,1.239-0.037c0.495,0.524,0.989,1.046,1.484,1.569c0.003,0.964,0.006,1.927,0.009,2.892
		C155.332,238.865,153.911,241.256,152.49,243.647z"/>
	<path fill-rule="evenodd" clip-rule="evenodd" fill="#E9DF9D" d="M156.743,233.583c-0.495-0.523-0.989-1.045-1.484-1.569
		c0.977-1.409,1.953-2.815,2.93-4.223C157.708,229.722,157.225,231.653,156.743,233.583z"/>
	<path fill-rule="evenodd" clip-rule="evenodd" fill="#E2D790" d="M198.521,242.349c-0.344,2.128-0.689,4.257-1.034,6.39
		C197.831,246.611,198.176,244.48,198.521,242.349z"/>
	<path fill-rule="evenodd" clip-rule="evenodd" fill="#E2D790" d="M197.713,253.902c0.259,0.395,0.325,0.82,0.203,1.274
		c-0.627-0.058-1.256-0.113-3.392-0.304C196.491,254.273,197.102,254.088,197.713,253.902z"/>
	<path fill-rule="evenodd" clip-rule="evenodd" fill="#E2D790" d="M148.285,250.822c1.361-2.334,2.722-4.67,4.083-7.005
		c0.018,3.782,0.035,7.565,0.054,11.348c-0.499,0.106-0.999,0.21-1.498,0.315c-0.422-0.513-0.844-1.028-1.267-1.542
		C149.2,252.899,148.743,251.861,148.285,250.822z"/>
	<path fill-rule="evenodd" clip-rule="evenodd" fill="#8F7C48" d="M150.924,255.479c0.499-0.104,0.999-0.209,1.498-0.315
		c1.468,0.102,2.938,0.202,4.406,0.304c-1.362,0.829-2.724,1.657-4.083,2.484C152.14,257.127,151.532,256.304,150.924,255.479z"/>
	<path fill-rule="evenodd" clip-rule="evenodd" fill="#AB3B16" d="M232.302,300.125c1.783-4.392,3.565-8.786,5.637-13.887
		c11.742-1.276,18.981,6.219,26.086,13.983c-0.838,2.172-1.676,4.344-2.659,6.888c-3.934,0.189-7.454,0.358-7.46,0.358
		c-7.44,3.101-11.867,4.946-16.918,7.05c-1.98-5.382-3.347-9.095-4.713-12.808C232.283,301.18,232.292,300.652,232.302,300.125z"/>
	<path fill-rule="evenodd" clip-rule="evenodd" fill="#8C4813" d="M200.176,258.312c0.927-1.513,1.854-3.026,2.782-4.538
		c0.634,2.819,1.268,5.636,1.9,8.455c0,0-0.474,0.421-0.472,0.42c-1.222-0.568-2.445-1.136-3.667-1.704
		C200.538,260.067,200.357,259.19,200.176,258.312z"/>
	<path fill-rule="evenodd" clip-rule="evenodd" fill="#7D632C" d="M200.719,260.945c1.223,0.568,2.446,1.136,3.667,1.704
		c0.064,0.875,0.13,1.75,0.196,2.625C203.296,263.831,202.007,262.389,200.719,260.945z"/>
	<path fill-rule="evenodd" clip-rule="evenodd" fill="#53391F" d="M316.103,309.07c0.491,1.954,0.982,3.908,1.474,5.86
		c-0.35,0.444-0.699,0.889-1.048,1.336c-0.563,2.534-1.127,5.069-1.69,7.604c-0.021,1.135-0.043,2.267-0.065,3.399
		c0.493,0.603,0.986,1.203,1.479,1.806c0.474,1.299,0.948,2.597,1.422,3.895c0.438,0.632,0.876,1.263,1.313,1.894l0.085-0.056
		c-0.045,1.003-0.09,2.004-0.134,3.007c-0.211,0.24-0.422,0.482-0.633,0.721c-9.899-8.672-5.32-19.065-3.464-29.134
		C315.255,309.261,315.675,309.15,316.103,309.07z"/>
	<path fill-rule="evenodd" clip-rule="evenodd" fill="#6B3C15" d="M139.268,212.219c0.025-1.056,0.051-2.112,0.077-3.168
		c1.627,0.548,3.253,1.097,4.882,1.647c0.846,0.74,1.69,1.479,2.535,2.219l0.191,0.334c-0.14,0.51-0.28,1.022-0.42,1.533
		c-1.391,0.955-2.782,1.909-4.174,2.865C141.329,215.837,140.298,214.027,139.268,212.219z"/>
	<path fill-rule="evenodd" clip-rule="evenodd" fill="#E2D790" d="M146.762,212.916c-0.844-0.739-1.688-1.479-2.535-2.219
		C145.07,211.437,145.916,212.177,146.762,212.916z"/>
	<path fill-rule="evenodd" clip-rule="evenodd" fill="#8F7C48" d="M148.285,250.822c0.458,1.04,0.915,2.077,1.372,3.115
		C149.2,252.899,148.743,251.861,148.285,250.822z"/>
	<path fill-rule="evenodd" clip-rule="evenodd" fill="#BC391B" d="M139.268,212.219c1.03,1.809,2.061,3.619,3.091,5.429
		c-0.011,1.994-0.023,3.987-0.036,5.981c-2.427-0.044-4.854-0.086-7.281-0.129c-4.221,2.202-8.441,4.403-12.659,6.601
		c-0.534-1.279-1.07-2.555-1.608-3.831c-0.494-0.601-0.986-1.203-1.478-1.806c0.022-1.132,0.044-2.265,0.066-3.402
		c0.43-2.558,0.859-5.113,1.288-7.67c0,0,0.2,0.137,0.202,0.139C126.992,213.094,133.129,212.656,139.268,212.219z"/>
	<path fill-rule="evenodd" clip-rule="evenodd" fill="#6B3C15" d="M135.043,223.5c2.426,0.042,4.854,0.085,7.281,0.129
		C139.824,227.712,137.393,227.859,135.043,223.5z"/>
	<path fill-rule="evenodd" clip-rule="evenodd" fill="#5B3511" d="M120.651,213.393c-0.429,2.557-0.858,5.112-1.288,7.67
		C119.792,218.507,120.222,215.951,120.651,213.393z"/>
	<path fill-rule="evenodd" clip-rule="evenodd" fill="#5B3511" d="M119.297,224.464c0.492,0.603,0.984,1.205,1.478,1.806
		C120.284,225.668,119.791,225.067,119.297,224.464z"/>
	<path fill-rule="evenodd" clip-rule="evenodd" fill="#E8DEA6" d="M150.945,226.341c-0.303,1.24-0.605,2.48-0.008,0.033
		c-1.643,1.766-0.812,0.873,0.019-0.021L150.945,226.341z"/>
	<path fill-rule="evenodd" clip-rule="evenodd" fill="#645232" d="M346.336,349.522c0.178,0.439,0.126,0.85-0.153,1.231
		c-0.115-0.311-0.264-0.615-0.32-0.935C345.851,349.75,346.17,349.623,346.336,349.522z"/>
	<path fill-rule="evenodd" clip-rule="evenodd" fill="#645232" d="M346.405,353.892c0.33,0.297,0.395,0.644,0.192,1.038
		c-0.223-0.229-0.445-0.457-0.668-0.685C346.088,354.126,346.247,354.009,346.405,353.892z"/>
	<path fill-rule="evenodd" clip-rule="evenodd" fill="#BC391B" d="M317.674,332.97c-0.474-1.298-0.948-2.596-1.424-3.895
		c-0.493-0.601-0.985-1.203-1.478-1.806c0.022-1.133,0.044-2.265,0.065-3.4c0.563-2.537,1.127-5.071,1.69-7.604
		c0.349-0.447,0.698-0.892,1.048-1.336c5.745,0.102,11.49,0.202,17.235,0.305c1.35,2.243,2.698,4.482,4.046,6.721
		c-0.93,2.295-1.856,4.59-2.985,7.384c-2.761-1.298-4.756-2.235-7.922-3.725c-2.016,3.076-4.068,6.208-6.122,9.34l-0.008,0.01
		c-0.916-0.052-1.832-0.104-2.748-0.157c0,0-0.085,0.056-0.084,0.056C318.55,334.231,318.112,333.601,317.674,332.97z"/>
	<path fill-rule="evenodd" clip-rule="evenodd" fill="#5B3511" d="M319.072,334.808c0.916,0.053,1.832,0.105,2.748,0.157
		c-0.96,0.95-1.922,1.9-2.883,2.85C318.982,336.812,319.027,335.811,319.072,334.808z"/>
	<path fill-rule="evenodd" clip-rule="evenodd" fill="#CD4518" d="M204.859,262.229c-0.633-2.818-1.266-5.635-1.9-8.455
		c0.03-2.347,0.059-4.693,0.09-7.039c0.568-3.526,1.137-7.053,1.758-10.912c10.947-2.442,19.065,2.419,26.981,8.417
		c0,2.991,0,5.585,0,9.497c-4.377,0-8.559,0-12.25,0c-2.601,3.93-4.779,7.223-7.157,10.816
		C209.329,263.609,207.094,262.919,204.859,262.229z"/>
	<path fill-rule="evenodd" clip-rule="evenodd" fill="#5B3511" d="M316.528,316.266c-0.563,2.533-1.127,5.066-1.69,7.604
		C315.401,321.335,315.965,318.8,316.528,316.266z"/>
	<path fill-rule="evenodd" clip-rule="evenodd" fill="#5B3511" d="M314.772,327.27c0.492,0.603,0.984,1.205,1.478,1.806
		C315.759,328.473,315.266,327.872,314.772,327.27z"/>
	<path fill-rule="evenodd" clip-rule="evenodd" fill="#5B3511" d="M317.674,332.97c0.438,0.631,0.876,1.262,1.314,1.894
		C318.55,334.232,318.112,333.602,317.674,332.97z"/>
</g>
</svg>
