<?xml version="1.0" encoding="utf-8"?>
<!-- Generator: Adobe Illustrator 16.0.0, SVG Export Plug-In . SVG Version: 6.00 Build 0)  -->
<!DOCTYPE svg PUBLIC "-//W3C//DTD SVG 1.1//EN" "http://www.w3.org/Graphics/SVG/1.1/DTD/svg11.dtd">
<svg version="1.1" id="Calque_1" xmlns="http://www.w3.org/2000/svg" xmlns:xlink="http://www.w3.org/1999/xlink" x="0px" y="0px"
	 width="480px" height="640px" viewBox="0 0 480 640" enable-background="new 0 0 480 640" xml:space="preserve">
<g>
	<path fill-rule="evenodd" clip-rule="evenodd" fill="#FDFDFD" d="M267,123.703c52.649,0,105.299,0.06,157.948-0.118
		c4.102-0.013,4.907,0.804,4.901,4.904c-0.144,109.857-0.144,219.716,0,329.572c0.006,4.101-0.801,4.907-4.901,4.901
		c-103.931-0.146-207.863-0.168-311.794,0.046c-5.117,0.011-4.856-1.948-4.853-5.631c0.082-111.225,0.067-222.45,0.067-333.675
		c45.584,0,91.167,0,136.752,0c-2.42,3.484-4.839,6.967-7.257,10.453c-4.187,3.752-8.375,7.504-12.562,11.257
		c-10.783,9.033-21.566,18.067-32.35,27.102c-8.347,6.436-16.693,12.871-25.04,19.307c-1.408,1.104-2.815,2.208-4.223,3.312
		c-11.635,9.139-23.271,18.277-34.906,27.416c-1.732,1.214-3.464,2.429-5.195,3.643c-0.538,0.529-1.075,1.058-1.611,1.585
		c-2.148,2.236-4.298,4.471-6.446,6.708c-9.24,7.973,1.169,11.234,3.917,16.333c7.251,8.213,14.503,16.426,21.755,24.64
		c1.403,1.373,2.806,2.746,4.208,4.118c1.828,2.198,3.656,4.396,5.485,6.595c1.244,1.481,2.489,2.962,3.733,4.444
		c5.551,7.723,11.103,15.446,16.655,23.169c0.393,0.544,0.786,1.089,1.178,1.633l-0.062-0.057c3.73,4.936,7.46,9.872,11.19,14.809
		c20.532,29.141,41.063,58.28,61.595,87.42c0.344,0.548,0.689,1.096,1.034,1.642c1.985,2.154,3.971,4.309,5.956,6.461
		c6.69,8.769,13.381,17.537,20.07,26.307c0.369,0.589,0.739,1.176,1.107,1.765c0,0-0.034,0.028-0.034,0.027
		c5.977,10.521,11.521,4.987,17.067-0.461c5.953-4.877,11.907-9.754,17.86-14.633c3.608-3.332,7.216-6.664,10.823-9.996
		c5.484-4.463,10.969-8.925,16.453-13.387c0.633-0.466,1.265-0.932,1.896-1.398c1.146-0.993,2.294-1.987,3.44-2.979
		c6.332-5.03,12.662-10.062,18.994-15.092c0.525-0.384,1.051-0.766,1.576-1.147c2.024-1.895,4.049-3.788,6.073-5.684
		c0.478-0.007,0.72-0.25,0.727-0.727c0.742-0.252,1.484-0.505,2.227-0.756c2.521-2.177,5.041-4.353,7.561-6.527
		c0.554-0.112,1.106-0.225,1.659-0.337c0.723-0.472,1.446-0.942,2.169-1.414c0.534-0.345,1.07-0.689,1.605-1.032l0.021-0.003
		c5.139-4.517,10.277-9.033,15.415-13.55c2.233-2.68,4.466-5.36,6.699-8.039c0.768-0.613,1.535-1.225,2.304-1.838
		c5.837-4.566,11.674-9.134,17.511-13.699c-1.668-3.671-3.336-7.344-5.004-11.015c-18.615-25.095-37.23-50.19-55.845-75.285
		c-9.504-12.324-19.008-24.646-28.512-36.97c-6.54-8.706-13.08-17.411-19.62-26.115c-3.553-4.068-7.104-8.136-10.657-12.204
		c-5.188-7.069-10.375-14.137-15.563-21.206c-5.505-7.875-11.01-15.75-16.515-23.625C277.594,127.275,267.164,128.618,267,123.703z"
		/>
	<path fill-rule="evenodd" clip-rule="evenodd" fill="#282516" d="M273.686,134.672c5.505,7.874,11.01,15.75,16.515,23.624
		c0.011,0.686,0.021,1.373,0.033,2.059c-1.361-0.366-2.723-0.733-4.083-1.099c-7.161-11.142-13.399-23.098-26.024-29.406
		c-2.789,0.112-5.578,0.225-8.368,0.336c-0.395,0.191-0.789,0.383-1.183,0.576c-1.358,0.854-2.716,1.707-4.074,2.56
		c-0.471,0.437-0.941,0.874-1.412,1.31c-0.928,0.001-1.854,0.003-2.782,0.004c3.217-3.645,6.434-7.289,9.65-10.934
		c1.368,0,2.735,0,4.103,0C261.936,127.359,267.811,131.016,273.686,134.672z"/>
	<path fill-rule="evenodd" clip-rule="evenodd" fill="#CACBCD" d="M273.686,134.672c-5.875-3.656-11.75-7.313-17.626-10.969
		c3.646,0,7.294,0,10.94,0C267.164,128.618,277.594,127.275,273.686,134.672z"/>
	<path fill-rule="evenodd" clip-rule="evenodd" fill="#CACBCD" d="M251.957,123.703c-3.217,3.645-6.434,7.289-9.65,10.934
		c-0.001,0,0.081-0.072,0.081-0.072c-1.346,0.053-2.69,0.107-4.035,0.16c-0.166-0.188-0.33-0.378-0.49-0.57
		c2.418-3.484,4.837-6.967,7.257-10.451C247.398,123.703,249.679,123.703,251.957,123.703z"/>
	<path fill-rule="evenodd" clip-rule="evenodd" fill="#3C3B28" d="M252.176,425.691c-1.985-2.152-3.971-4.307-5.956-6.461
		c0.443-0.559,0.886-1.116,2.426-3.059c-2.229,0.914-2.845,1.165-3.46,1.417c-20.532-29.14-41.063-58.279-61.594-87.42
		c0.501-0.914,1.003-1.828,1.505-2.741c10.777,13.282,21.555,26.566,32.332,39.849c7.665,10.481,15.33,20.962,22.995,31.444
		c4.239,7.264,8.479,14.525,12.719,21.789c-0.214,1.609-0.429,3.219-0.643,4.828L252.176,425.691z"/>
	<path fill-rule="evenodd" clip-rule="evenodd" fill="#353424" d="M364.552,254.792c18.614,25.095,37.229,50.189,55.845,75.285
		c-0.554,1.45-1.108,2.9-1.662,4.351c-19.434-26.046-38.868-52.09-58.303-78.136C361.805,255.792,363.179,255.291,364.552,254.792z"
		/>
	<path fill-rule="evenodd" clip-rule="evenodd" fill="#3C3B28" d="M364.552,254.792c-1.373,0.5-2.747,1-4.121,1.5
		c-1.517-1.801-3.034-3.603-4.551-5.406c-7.344-9.907-14.688-19.813-22.03-29.721c0.729-1.114,1.46-2.229,2.19-3.342
		C345.544,230.146,355.048,242.468,364.552,254.792z"/>
	<path fill-rule="evenodd" clip-rule="evenodd" fill="#3C3B28" d="M121.975,227.779c0.538-0.529,1.075-1.058,1.611-1.585
		c1.731-1.214,3.464-2.429,5.197-3.644c11.635-9.139,23.271-18.277,34.906-27.416c0.575,0.583,1.149,1.166,1.723,1.748
		c-0.027,0.35-0.205,0.587-0.532,0.712c-1.052,1.018-2.105,2.035-3.158,3.051c-0.465,0.335-0.931,0.67-1.396,1.006
		c-0.871,0.678-1.743,1.357-2.614,2.037c-2.335,2.48-4.671,4.961-7.008,7.441c-0.494,0.342-0.988,0.684-1.483,1.026
		c-2.694,1.94-5.388,3.882-8.082,5.824c-6.306,4.679-12.611,9.359-18.917,14.038c-0.08-0.68-0.161-1.361-0.241-2.042
		C121.979,229.243,121.978,228.511,121.975,227.779z"/>
	<path fill-rule="evenodd" clip-rule="evenodd" fill="#353424" d="M141.202,275.458c-7.251-8.213-14.503-16.427-21.755-24.64
		c-0.048-2.672-0.096-5.345-0.144-8.017c0.415-0.032,0.819,0.02,1.213,0.156c7.378,9.367,14.756,18.734,22.134,28.101
		C142.167,272.525,141.685,273.991,141.202,275.458z"/>
	<path fill-rule="evenodd" clip-rule="evenodd" fill="#3C3B28" d="M272.246,451.998c-6.689-8.77-13.38-17.538-20.07-26.307
		c0,0,0.323-0.354,0.322-0.353c0.786-0.817,1.573-1.636,2.36-2.454c8.156,10.118,16.313,20.237,24.469,30.357
		c-2.003,0.183-4.005,0.366-6.008,0.549c0,0,0.034-0.028,0.035-0.029C272.985,453.173,272.616,452.585,272.246,451.998z"/>
	<path fill-rule="evenodd" clip-rule="evenodd" fill="#353424" d="M192.952,172.515c10.783-9.035,21.566-18.069,32.35-27.102
		c0.546-0.005,1.092-0.011,1.639-0.015c0.93,0.211,1.86,0.422,2.791,0.633c-0.445,0.758-0.89,1.519-1.334,2.277
		c-0.825,0.556-1.65,1.11-2.475,1.666c-0.377,0.346-0.754,0.693-1.132,1.04c-0.503,0.454-1.008,0.91-1.511,1.364
		c-1.25,0.887-2.501,1.775-3.752,2.662c-0.558,0.523-1.117,1.045-1.675,1.569c-7.278,5.92-14.555,11.842-21.832,17.762
		C194.996,173.751,193.974,173.133,192.952,172.515z"/>
	<path fill-rule="evenodd" clip-rule="evenodd" fill="#353424" d="M336.04,217.822c-0.73,1.114-1.461,2.229-2.19,3.342
		c-0.584-0.522-1.167-1.045-1.752-1.569c-2.37-2.847-4.741-5.696-7.112-8.543c-0.593-0.615-1.187-1.229-1.779-1.843
		c-0.107-0.694-0.216-1.39-0.323-2.086c-0.795-0.684-1.589-1.368-2.384-2.051c-2.058-3.779-4.116-7.557-6.175-11.335
		c0.698-0.677,1.397-1.354,2.096-2.03C322.96,200.411,329.5,209.116,336.04,217.822z"/>
	<path fill-rule="evenodd" clip-rule="evenodd" fill="#3C3B28" d="M171.284,313.784c-5.552-7.723-11.104-15.446-16.655-23.169
		c1.605,0.373,3.212,0.744,4.818,1.117c5.444,7.767,10.889,15.533,16.333,23.298c-1.126,0.11-2.253,0.221-3.379,0.33l0.062,0.057
		C172.069,314.873,171.676,314.328,171.284,313.784z"/>
	<path fill-rule="evenodd" clip-rule="evenodd" fill="#3C3B28" d="M290.233,160.355c-0.012-0.687-0.022-1.373-0.033-2.059
		c5.188,7.07,10.375,14.138,15.563,21.207c-0.577,1.29-1.155,2.582-1.732,3.872c-0.405-0.009-0.811-0.029-1.216-0.059
		c-0.145-0.716-0.29-1.431-0.436-2.147c-0.574-0.715-1.149-1.431-1.725-2.145l-0.33,0.199l0.273-0.272
		c-0.932-1.257-1.863-2.514-2.794-3.771l-0.164-0.092c-2.326-2.703-4.652-5.406-6.979-8.109
		C290.519,164.77,290.375,162.563,290.233,160.355z"/>
	<path fill-rule="evenodd" clip-rule="evenodd" fill="#3C3B28" d="M192.952,172.515c1.022,0.618,2.044,1.236,3.067,1.854
		c-1.866,1.345-3.731,2.691-5.597,4.036c-3.65,2.722-7.3,5.443-10.95,8.165c-2.149,1.442-4.297,2.883-6.446,4.324
		c-0.587,0.479-1.174,0.958-1.762,1.436l-0.439,0.399c-0.971-0.303-1.942-0.605-2.913-0.908
		C176.258,185.386,184.605,178.95,192.952,172.515z"/>
	<path fill-rule="evenodd" clip-rule="evenodd" fill="#3C3B28" d="M308.247,438.697c-5.953,4.878-11.907,9.755-17.86,14.632
		c-0.729-0.028-1.457-0.057-2.186-0.084c6.178-5.45,12.355-10.9,18.532-16.351C307.238,437.496,307.743,438.097,308.247,438.697z"/>
	<path fill-rule="evenodd" clip-rule="evenodd" fill="#3C3B28" d="M425.4,341.091c-5.837,4.565-11.674,9.133-17.511,13.699
		c1.779-2.283,3.559-4.567,5.338-6.853c0.821-1.001,1.642-2.004,2.462-3.006c1.5-1.296,3-2.591,4.479-3.87
		c-0.45-2.118-0.803-3.771-1.153-5.422C421.144,337.457,423.272,339.273,425.4,341.091z"/>
	<path fill-rule="evenodd" clip-rule="evenodd" fill="#3C3B28" d="M335.523,415.313c-5.484,4.462-10.969,8.924-16.453,13.387
		c-0.5-0.493-1.001-0.984-1.501-1.477c2.354-2.916,4.707-5.831,7.061-8.746c3.18-2.017,6.359-4.035,9.539-6.052
		c0.457,0.454,0.915,0.908,1.371,1.362C335.535,414.297,335.529,414.805,335.523,415.313z"/>
	<path fill-rule="evenodd" clip-rule="evenodd" fill="#524A32" d="M359.854,395.844c-6.332,5.03-12.662,10.062-18.994,15.092
		c-0.127-1.235-0.255-2.469-0.383-3.704c1.547-1.33,3.094-2.662,4.639-3.993c3.396-2.537,6.791-5.075,10.186-7.613
		C356.819,395.698,358.336,395.771,359.854,395.844z"/>
	<path fill-rule="evenodd" clip-rule="evenodd" fill="#524A32" d="M398.887,364.667c-5.138,4.517-10.276,9.033-15.415,13.551
		c-0.8-0.688-1.6-1.374-2.399-2.061c4.284-4.06,8.568-8.121,12.854-12.181C395.579,364.206,397.233,364.437,398.887,364.667z"/>
	<path fill-rule="evenodd" clip-rule="evenodd" fill="#282516" d="M119.303,242.802c0.048,2.672,0.096,5.344,0.144,8.017
		c-2.749-5.099-13.157-8.36-3.918-16.333c1.372,0.105,2.744,0.211,4.115,0.317C119.53,237.469,119.417,240.135,119.303,242.802z"/>
	<path fill-rule="evenodd" clip-rule="evenodd" fill="#3C3B28" d="M381.072,376.157c0.8,0.687,1.6,1.373,2.399,2.061
		c0-0.001-0.021,0.002-0.021,0.002c-0.535,0.343-1.071,0.688-1.605,1.032c-0.723,0.472-1.446,0.942-2.169,1.414
		c-0.553,0.112-1.105,0.225-1.659,0.337c-2.52,2.175-5.04,4.351-7.562,6.527c-0.741,0.253-1.484,0.504-2.226,0.756
		c-0.007,0.477-0.249,0.72-0.726,0.727c-1.942,0.295-3.886,0.592-5.83,0.888C368.141,385.32,374.606,380.738,381.072,376.157z"/>
	<path fill-rule="evenodd" clip-rule="evenodd" fill="#524A32" d="M288.201,453.245c0.729,0.027,1.456,0.056,2.186,0.084
		c-5.546,5.448-11.091,10.981-17.067,0.461c2.003-0.182,4.005-0.365,6.008-0.548C282.284,453.642,285.24,459.221,288.201,453.245z"
		/>
	<path fill-rule="evenodd" clip-rule="evenodd" fill="#524A32" d="M172.4,315.36c1.126-0.109,2.253-0.22,3.379-0.33
		c3.105,4.132,6.211,8.264,9.317,12.397c-0.502,0.913-1.003,1.827-1.505,2.741C179.86,325.232,176.13,320.296,172.4,315.36z"/>
	<path fill-rule="evenodd" clip-rule="evenodd" fill="#282516" d="M304.03,183.375c0.577-1.29,1.155-2.582,1.732-3.872
		c3.553,4.068,7.104,8.136,10.657,12.204c-0.698,0.676-1.397,1.353-2.096,2.03c-1.17-1.135-2.34-2.269-3.51-3.403
		c-0.504-0.313-1.007-0.624-1.511-0.936c-0.419-0.009-0.835-0.048-1.249-0.114l0.024,0.021c-1.245-1.493-2.488-2.986-3.733-4.479
		l-0.44,0.296c0,0,0.426-0.319,0.425-0.318C304.229,184.328,304.13,183.851,304.03,183.375z"/>
	<path fill-rule="evenodd" clip-rule="evenodd" fill="#3C3B28" d="M398.887,364.667c-1.653-0.23-3.308-0.461-4.961-0.69
		c2.841-2.548,5.681-5.095,8.521-7.643c1.046,0.098,2.092,0.196,3.139,0.294C403.353,359.307,401.12,361.987,398.887,364.667z"/>
	<path fill-rule="evenodd" clip-rule="evenodd" fill="#524A32" d="M317.569,427.224c0.5,0.492,1.001,0.983,1.501,1.477
		c-3.607,3.332-7.215,6.664-10.823,9.996c-0.504-0.6-1.009-1.2-1.514-1.802C310.346,433.671,313.958,430.447,317.569,427.224z"/>
	<path fill-rule="evenodd" clip-rule="evenodd" fill="#CACBCD" d="M226.94,145.397c-0.546,0.004-1.092,0.01-1.639,0.015
		c4.188-3.753,8.375-7.504,12.562-11.257c0.16,0.191,0.324,0.38,0.49,0.569c-1.157,1.286-2.313,2.572-3.47,3.857
		C232.236,140.853,229.587,143.125,226.94,145.397z"/>
	<path fill-rule="evenodd" clip-rule="evenodd" fill="#B3A96B" d="M405.586,356.628c-1.047-0.098-2.093-0.196-3.139-0.294
		c-0.042-1.296-0.085-2.59-0.127-3.885c3.233-2.351,6.467-4.701,9.701-7.052c0.402,0.847,0.805,1.693,1.206,2.54
		c-1.779,2.285-3.559,4.569-5.338,6.853C407.121,355.403,406.354,356.015,405.586,356.628z"/>
	<path fill-rule="evenodd" clip-rule="evenodd" fill="#282516" d="M425.4,341.091c-2.128-1.817-4.257-3.634-6.385-5.451
		c-0.128-0.396-0.222-0.802-0.281-1.213c0.554-1.45,1.108-2.9,1.662-4.351C422.064,333.747,423.732,337.42,425.4,341.091z"/>
	<path fill-rule="evenodd" clip-rule="evenodd" fill="#282516" d="M141.202,275.458c0.483-1.467,0.965-2.933,1.448-4.399
		c2.296,2.79,4.592,5.58,6.889,8.368c-1.376,0.049-2.752,0.099-4.128,0.149C144.008,278.204,142.605,276.831,141.202,275.458z"/>
	<path fill-rule="evenodd" clip-rule="evenodd" fill="#282516" d="M159.447,291.732c-1.606-0.373-3.213-0.744-4.818-1.117
		c-1.245-1.482-2.49-2.963-3.733-4.444c0.456-0.972,0.913-1.943,1.369-2.914C154.658,286.082,157.052,288.907,159.447,291.732z"/>
	<path fill-rule="evenodd" clip-rule="evenodd" fill="#3C3B28" d="M152.264,283.257c-0.456,0.971-0.913,1.942-1.369,2.914
		c-1.829-2.198-3.657-4.396-5.485-6.595c1.376-0.051,2.752-0.1,4.129-0.149c0,0.001-0.09-0.005-0.09-0.005
		c0.415,0.502,0.83,1.004,1.245,1.506C151.217,281.704,151.741,282.479,152.264,283.257z"/>
	<path fill-rule="evenodd" clip-rule="evenodd" fill="#524A32" d="M361.674,389.9c1.944-0.296,3.888-0.593,5.83-0.888
		c-2.025,1.896-4.05,3.789-6.074,5.683c-1.044-0.581-2.089-1.162-3.133-1.743C359.423,391.935,360.549,390.917,361.674,389.9z"/>
	<path fill-rule="evenodd" clip-rule="evenodd" fill="#524A32" d="M119.644,234.802c-1.372-0.105-2.744-0.211-4.115-0.317
		c2.149-2.237,4.299-4.472,6.447-6.708c0.001,0.733,0.003,1.465,0.005,2.2c-0.839,1.566-1.679,3.13-2.519,4.695L119.644,234.802z"/>
	<path fill-rule="evenodd" clip-rule="evenodd" fill="#524A32" d="M167.912,191.821c0.971,0.303,1.942,0.605,2.913,0.908
		c-1.804,1.383-3.609,2.769-5.413,4.152c-0.574-0.582-1.148-1.165-1.723-1.748C165.096,194.029,166.504,192.926,167.912,191.821z"/>
	<path fill-rule="evenodd" clip-rule="evenodd" fill="#3C3B28" d="M340.477,407.231c0.128,1.235,0.256,2.469,0.383,3.704
		c-1.146,0.992-2.294,1.986-3.44,2.979c-0.626-0.042-1.252-0.084-1.879-0.127c-0.456-0.454-0.914-0.908-1.371-1.362
		C336.272,410.695,338.374,408.963,340.477,407.231z"/>
	<path fill-rule="evenodd" clip-rule="evenodd" fill="#524A32" d="M128.783,222.549c-1.732,1.215-3.465,2.43-5.197,3.644
		C125.319,224.979,127.051,223.763,128.783,222.549z"/>
	<path fill-rule="evenodd" clip-rule="evenodd" fill="#3C3B28" d="M358.297,392.952c1.044,0.581,2.089,1.162,3.133,1.744
		c-0.525,0.382-1.051,0.764-1.576,1.147c-1.518-0.072-3.034-0.146-4.552-0.219C356.3,394.734,357.299,393.843,358.297,392.952z"/>
	<path fill-rule="evenodd" clip-rule="evenodd" fill="#282516" d="M245.186,417.589c0.615-0.252,1.23-0.503,3.46-1.417
		c-1.54,1.942-1.982,2.5-2.426,3.059C245.875,418.685,245.529,418.137,245.186,417.589z"/>
	<path fill-rule="evenodd" clip-rule="evenodd" fill="#524A32" d="M378.017,381.003c0.554-0.112,1.106-0.225,1.659-0.337
		C379.123,380.778,378.57,380.891,378.017,381.003z"/>
	<path fill-rule="evenodd" clip-rule="evenodd" fill="#524A32" d="M368.229,388.286c0.741-0.252,1.484-0.503,2.226-0.756
		C369.714,387.781,368.972,388.034,368.229,388.286z"/>
	<path fill-rule="evenodd" clip-rule="evenodd" fill="#524A32" d="M381.845,379.252c0.534-0.345,1.07-0.689,1.605-1.032
		C382.915,378.563,382.379,378.907,381.845,379.252z"/>
	<path fill-rule="evenodd" clip-rule="evenodd" fill="#524A32" d="M171.284,313.784c0.393,0.544,0.786,1.089,1.178,1.633
		C172.069,314.873,171.676,314.328,171.284,313.784z"/>
	<path fill-rule="evenodd" clip-rule="evenodd" fill="#524A32" d="M272.246,451.998c0.37,0.587,0.739,1.175,1.108,1.764
		C272.985,453.174,272.615,452.587,272.246,451.998z"/>
	<path fill-rule="evenodd" clip-rule="evenodd" fill="#524A32" d="M335.54,413.788c0.627,0.043,1.253,0.085,1.879,0.127
		c-0.631,0.467-1.263,0.933-1.896,1.398C335.529,414.805,335.535,414.297,335.54,413.788z"/>
	<path fill-rule="evenodd" clip-rule="evenodd" fill="#E5D57A" d="M190.421,178.405c1.866-1.345,3.731-2.691,5.597-4.036
		c7.277-5.92,14.554-11.841,21.831-17.762c0.559-0.522,1.117-1.045,1.676-1.569c1.25-0.887,2.501-1.775,3.751-2.662
		c0.503-0.454,1.007-0.91,1.512-1.364c0.378-0.347,0.755-0.694,1.132-1.042c0.825-0.554,1.651-1.11,2.475-1.664
		c0.445-0.758,0.89-1.519,1.333-2.278c3.003-2.342,6.006-4.685,9.01-7.027c1.216-1.479,2.432-2.959,3.648-4.438
		c0,0-0.082,0.072-0.081,0.072c0.928-0.001,1.854-0.003,2.782-0.004c0.471-0.437,0.941-0.873,1.412-1.31
		c1.358-0.854,2.716-1.707,4.074-2.56c1.4,7.667,6.242,2.146,9.553,2.492c0.929,0.458,1.856,0.917,2.785,1.375l-0.002-0.001
		c-0.918,4.562-1.835,9.124-2.753,13.687c-11.098,6.286-27.982,4.734-29.416,23.004c-10.114-1.759-12.54,14.539-21.651,8.249
		c-5.953,1.817-10.325,3.153-14.632,4.468C192.791,181.71,191.606,180.059,190.421,178.405z"/>
	<path fill-rule="evenodd" clip-rule="evenodd" fill="#D5C76E" d="M260.126,129.85c12.625,6.308,18.863,18.264,26.024,29.406
		c0,0-0.324,0.318-0.323,0.316c-0.79-0.109-1.582-0.218-2.374-0.326c-6.847-8.207-13.694-16.412-20.542-24.618l0.002,0.001
		c-0.916-0.907-1.833-1.813-2.749-2.719l-0.01-0.011C260.145,131.216,260.136,130.534,260.126,129.85z"/>
	<path fill-rule="evenodd" clip-rule="evenodd" fill="#D5C76E" d="M260.128,133.254c-3.311-0.346-8.152,5.175-9.553-2.492
		c0.394-0.192,0.788-0.385,1.183-0.576c2.799,0.572,5.598,1.142,8.396,1.713l0.01,0.011
		C260.152,132.358,260.141,132.807,260.128,133.254z"/>
	<path fill-rule="evenodd" clip-rule="evenodd" fill="#E5D57A" d="M260.154,131.9c-2.799-0.571-5.598-1.142-8.396-1.713
		c2.79-0.112,5.579-0.224,8.368-0.336C260.136,130.534,260.145,131.216,260.154,131.9z"/>
	<path fill-rule="evenodd" clip-rule="evenodd" fill="#D5C76E" d="M290.233,160.355c0.142,2.208,0.285,4.415,0.427,6.623
		c-0.155,0.183-0.316,0.36-0.485,0.533c-1.448-2.646-2.899-5.291-4.349-7.937l0.324-0.318
		C287.511,159.622,288.872,159.989,290.233,160.355z"/>
	<path fill-rule="evenodd" clip-rule="evenodd" fill="#D5C76E" d="M246.501,133.322c-0.471,0.437-0.941,0.874-1.412,1.31
		C245.56,134.196,246.03,133.759,246.501,133.322z"/>
	<path fill-rule="evenodd" clip-rule="evenodd" fill="#282516" d="M242.388,134.564c-1.217,1.479-2.432,2.958-3.648,4.438
		c-1.285-0.14-2.571-0.28-3.856-0.42c1.157-1.285,2.313-2.571,3.47-3.857C239.698,134.671,241.042,134.618,242.388,134.564z"/>
	<path fill-rule="evenodd" clip-rule="evenodd" fill="#E7D971" d="M358.297,392.952c-0.998,0.891-1.997,1.782-2.995,2.673
		c-3.396,2.538-6.791,5.076-10.187,7.613c-3.417-4.604-6.835-9.208-10.315-13.896c-13.489,7.655-8.591,19.414-10.17,29.135
		c-2.354,2.915-4.706,5.83-7.061,8.746c-3.611,3.224-7.224,6.447-10.836,9.671c-6.177,5.45-12.354,10.9-18.532,16.351
		c-2.961,5.976-5.917,0.396-8.874-0.003c-8.156-10.12-16.313-20.239-24.469-30.357c-0.573-0.792-1.145-1.583-1.717-2.375
		c-4.24-7.264-8.479-14.525-12.718-21.791c0.977-11.428-12.588-18.488-7.181-31.442c-6.603,0-11.209,0-15.814,0
		c-10.777-13.282-21.555-26.566-32.332-39.849c-3.105-4.134-6.211-8.266-9.317-12.397c-5.444-7.766-10.889-15.531-16.333-23.298
		c-2.395-2.825-4.789-5.65-7.183-8.475c-0.523-0.777-1.046-1.553-1.57-2.329c-0.415-0.502-0.83-1.004-1.245-1.506
		c0,0,0.09,0.007,0.09,0.005c-2.297-2.789-4.593-5.578-6.89-8.368c-7.378-9.367-14.756-18.734-22.134-28.101
		c0.442-1.326,0.884-2.652,1.367-4.103c3.215,1.925,5.871,3.514,8.503,5.126c2.906,2.757,2.053,10.313,9.479,7.315
		c0.864-0.224,1.729-0.447,2.592-0.67c1.715,0.868,3.429,1.737,5.144,2.607c1.043,0.363,2.086,0.728,3.129,1.092
		c2.307,1.166,4.615,2.333,6.922,3.499c-0.513,0.788-1.027,1.576-1.54,2.365c-0.397,0.535-0.794,1.071-1.192,1.608l-0.023,0.162
		c-2.264,9.768,2.265,12.623,11.193,11c0.893-0.399,1.786-0.798,2.678-1.198c0.988,0.42,1.975,0.841,3.149,1.342
		c-0.354,1.398-0.626,2.476-0.897,3.552l0.104-0.06c-0.662,0.442-1.324,0.884-1.986,1.325c-0.661,0.331-1.321,0.663-1.982,0.994
		l-0.451,0.143l0.041,0.454c-0.302,1.324-0.604,2.646-1.488,6.517c3.59-2.818,5.015-3.936,6.439-5.053l0.212,0.229l0.13-0.354
		l0.342,0.04l0.219-0.266c0.543-0.31,1.086-0.62,1.629-0.93c0.4-0.441,0.8-0.883,1.2-1.325c0.365-0.045,0.721-0.127,1.069-0.243
		c0.538-0.852,1.076-1.705,1.614-2.558l0.047-0.072c1.298-2.524,2.595-5.048,4.587-8.924c3.668-0.176,8.204-0.394,12.74-0.611
		c1.039,0.931,2.078,1.863,3.117,2.795c0.395,0.479,0.789,0.959,1.183,1.437c1.479,0.382,2.958,0.763,4.437,1.143
		c2.175-0.091,4.349-0.182,6.524-0.274c0.466-0.253,0.931-0.506,1.397-0.76c0.085-0.474,0.171-0.948,0.257-1.421
		c0.503-0.076,1.006-0.151,1.509-0.226c2.198-4.097,4.396-8.194,6.593-12.292c2.49-5.231,4.981-10.461,7.37-15.481
		c21.319,0.557,9.937-15.994,11.773-25.552c0.483-0.984,0.965-1.968,1.449-2.953c1.788,1.11,3.576,2.22,5.364,3.33
		c4.096,0.429,8.192,0.857,12.288,1.285c-1.656,1.528-3.313,3.054-5.274,4.861c-1.393-0.869-2.703-1.688-5.014-3.131
		c0.475,3.939,0.816,6.77,1.136,9.423c2.652,1.942,4.95,3.623,7.485,5.479c2.727-3.045,4.941-5.518,6.421-7.17
		c9.839,2.05,18.712,3.898,28.632,5.964c-7.562,3.414-13.542,6.113-20.38,9.199c-0.16,1.265-0.407,3.213-0.654,5.162
		c-1.368-0.625-2.738-1.25-3.91-1.786c-1.963,1.417-3.84,2.772-5.716,4.127c-2.815,2.317-5.63,4.634-8.444,6.951l0.241,0.253
		l-0.212-0.279c-1.191,1.029-2.384,2.058-3.576,3.087c-1.607,1.796-3.214,3.591-4.821,5.386c-5.027,7.299-7.666,14.243,2.866,19.22
		c0.601,1.255,1.201,2.509,1.802,3.764c0.467,0.533,0.935,1.065,1.401,1.598l-0.085-0.069c7.134,4.18,14.268,8.36,22.555,13.216
		c1.202-0.832,3.672-2.542,6.143-4.253c0.87-0.22,1.741-0.439,2.611-0.658c13.711,0.373,14.874-10.914,19.942-20.851
		c-3.725-0.978-6.332-1.663-8.939-2.347c-1.352-0.919-2.703-1.837-4.054-2.756c-0.001-0.92-0.002-1.842-0.002-2.762
		c0-4.872,0-9.745,0-15.036c-5.868,0.773-10.097,1.332-14.903,1.966c-0.854,1.449-1.874,3.177-2.893,4.905
		c-0.31,0.231-0.656,0.319-1.04,0.268c-1.687-3.07-3.373-6.139-4.273-7.777c2.545-2.956,3.927-4.561,5.31-6.167
		c8.229-6.108,25.449,9.673,26.997-12.297c7.002,0,13.47,0,19.162,0c2.063-6.593,3.785-12.104,6.139-19.626
		c2.656,4.394,3.883,6.422,5.671,9.379c1.272-1.951,2.149-3.296,3.025-4.641c0.585,0.523,1.168,1.047,1.752,1.569
		c7.343,9.908,14.687,19.814,22.03,29.721c-0.454,1.971-0.908,3.942-1.783,7.735c6.253,11.29,13.108,23.671,20.494,37.01
		c-2.445,2.276-7.43,4.747-8.602,8.431c-2.957,9.29-1.953,17.903,10.452,19.718c0.867-0.225,1.734-0.447,2.603-0.671
		c1.711,0.87,3.424,1.74,5.136,2.609c1.101,0.414,2.2,0.83,3.302,1.245c0.469,3.145,0.937,6.29,1.405,9.436
		c0.379,0.656,0.757,1.314,1.136,1.972c0.402,0.465,0.805,0.931,1.208,1.396l0.222,0.224c0.461,0.36,0.923,0.723,1.384,1.083
		c0.427,0.186,0.854,0.371,1.281,0.557c1.017,0.167,2.033,0.334,3.05,0.502c1.243,0.047,2.486,0.094,3.729,0.141
		c0.153,1.726,0.307,3.452,0.46,5.178c0.321,1.666,0.643,3.333,0.964,5c0.042,1.295,0.085,2.589,0.127,3.885
		c-2.841,2.548-5.681,5.095-8.521,7.643c-4.285,4.06-8.569,8.121-12.854,12.181c-6.466,4.581-12.932,9.163-19.398,13.743
		C360.549,390.917,359.423,391.935,358.297,392.952z M288.876,368.439c0.316-0.504,0.634-1.008,0.95-1.513
		c2.028-8.844,4.759-17.741-1.997-25.909l-0.209-0.255c-0.274-0.344-0.55-0.687-0.824-1.03c-2.104-1.251-4.208-2.503-6.311-3.754
		c-0.106-8.772-5.887-2.258-8.848-3.341c-2.087-0.746-4.173-1.491-6.26-2.237c-5.17,3.921-10.34,7.842-15.51,11.763
		c0.786,0.716,1.571,1.433,2.358,2.148c2.954,0.843,5.909,1.686,8.865,2.528c0.208,1.029,0.417,2.06,0.626,3.089
		c-2.34,0.727-4.679,1.453-7.019,2.18c-5.148,4.75-4.617,9.015,1.1,12.835c0.563,0.217,1.127,0.432,1.729,0.661
		c0.21-0.507,0.359-0.869,0.509-1.231l0.034,0.017c2.5,8.041,8.979-0.715,12.514,2.965c0.115,0.437,0.303,0.841,0.561,1.211
		c0.474,0.716,0.948,1.431,1.423,2.145c3.081,0.857,6.164,1.714,9.246,2.569c0.775-0.523,1.552-1.045,2.328-1.568
		c0.619-0.301,1.239-0.602,1.859-0.902c0.549,0.775,1.1,1.548,2.412,3.396C288.646,371.313,288.761,369.877,288.876,368.439z
		 M325.861,271.503c-0.781,5.403-11.58,4.471-7.994,12.638c2.955,0.843,5.909,1.685,8.865,2.528c0.209,1.03,0.418,2.06,0.626,3.089
		c-2.34,0.727-4.679,1.453-7.019,2.18c-5.148,4.75-4.616,9.016,1.1,12.835c1.456,1.231,2.911,2.463,4.366,3.694
		c0,3.017,0,6.033,0,8.762c3.23,1.497,5.441,2.523,8.448,3.916c2.796-2.538,5.539-5.027,8.283-7.518
		c0.804,0.031,1.607,0.062,2.411,0.092c2.031,1.244,5.607,3.82,5.858,3.528c3.239-3.756,6.005-7.922,11.135-15.143
		c-1.929,1.09-0.199,0.112,2.188-1.238c-0.793-5.921-1.596-11.912-2.573-19.217c-2.217-0.2-5.029-0.457-7.841-0.712
		c-0.492-0.136-0.732-0.459-0.72-0.969c-1.587-4.589-3.174-9.177-4.86-14.056c-3.277-1.024-6.446-2.015-11.168-3.492
		c-1.871,2.431-3.916,5.087-5.961,7.743c-0.823-0.079-1.646-0.156-2.47-0.235c-0.529-0.676-1.058-1.352-2.284-2.921
		C326.049,269.345,325.954,270.424,325.861,271.503z M305.391,379.079c-20.843,8.662-20.843,8.662-19.006,15.19
		c12.116-3.89,24.212-7.771,37.029-11.884c-2.307-2.465-3.965-4.235-5.357-5.724c-1.59-4.916,2.229-11.85-7.473-13.801
		C308.908,368.096,307.248,373.278,305.391,379.079z M244.319,371.578c0.561,0.008,1.12,0.018,1.681,0.026
		c-0.133-1.208-0.265-2.415-1.681-15.339C244.319,369.25,244.319,370.414,244.319,371.578z M292.026,269.061
		c0.529,0.083,1.058,0.166,1.586,0.248c0.203-1.476,0.405-2.95,0.608-4.426c-0.466-0.073-0.931-0.146-1.396-0.219
		C292.559,266.131,292.292,267.596,292.026,269.061z"/>
	<path fill-rule="evenodd" clip-rule="evenodd" fill="#D9CC74" d="M217.428,367.276c4.605,0,9.211,0,15.814,0
		c-5.407,12.954,8.158,20.015,7.181,31.442C232.758,388.238,225.093,377.758,217.428,367.276z"/>
	<path fill-rule="evenodd" clip-rule="evenodd" fill="#282516" d="M253.142,420.51c0.572,0.792,1.144,1.583,1.717,2.375
		c-0.787,0.818-1.574,1.637-2.36,2.454C252.713,423.729,252.928,422.119,253.142,420.51z"/>
	<path fill-rule="evenodd" clip-rule="evenodd" fill="#D9CC74" d="M376.441,323.779c-12.405-1.815-13.409-10.429-10.452-19.718
		c1.172-3.685,6.156-6.155,8.602-8.431c-7.386-13.338-14.241-25.72-20.494-37.01c0.875-3.792,1.329-5.764,1.783-7.735
		c1.517,1.803,3.034,3.604,4.551,5.406c19.436,26.046,38.87,52.09,58.304,78.136c0.06,0.411,0.153,0.816,0.281,1.213
		c0.351,1.651,0.703,3.304,1.153,5.422c-1.479,1.279-2.979,2.574-4.479,3.867c-0.34-0.359-0.678-0.716-1.016-1.073
		c-0.623-2.255-1.245-4.51-1.868-6.765c-0.289-0.438-0.579-0.876-0.868-1.313c-0.155-1.654-0.311-3.31-0.561-5.979
		c-2.083,0.728-3.506,1.226-4.928,1.723c-0.135,0.324-0.373,0.452-0.717,0.386c-0.984,0.621-1.968,1.242-2.951,1.863
		c-0.37,0.302-0.74,0.602-1.109,0.903c-1.382-0.332-2.764-0.663-4.457-1.07c0.431-1.786,0.769-3.187,1.106-4.588
		c0.89-0.083,1.778-0.165,2.668-0.248c1.268-0.832,2.536-1.664,5.379-3.528c-3.141-0.316-4.163-0.421-5.186-0.523l-0.197-0.235
		c-1.364,0.024-2.728,0.05-4.093,0.075l-0.135,0.106c-1.018,0.377-2.035,0.752-3.053,1.127c-0.529-0.757-1.058-1.515-1.586-2.274
		c0.325-0.51,0.648-1.019,0.972-1.527c0.353-0.358,0.411-0.757,0.178-1.202c-1.01-1.466-2.02-2.931-3.029-4.397
		c-0.159-0.891-0.318-1.78-0.477-2.671c0.819-2.07,1.639-4.142,3.339-8.435c-4.479,0.879-6.494,1.274-8.51,1.669
		c-1.328,0.382-2.656,0.764-3.983,1.146c-0.362-2.711-0.724-5.421-1.323-9.911c-3.912,2.699-7.099,4.897-9.299,6.416
		c3.107,3.721,4.851,5.809,6.595,7.896l-0.128,0.082c-0.62,0.333-1.24,0.667-1.861,0.999c-1.91,0.757-3.821,1.515-7.031,2.785
		C372.539,320.521,374.49,322.149,376.441,323.779z"/>
	<path fill-rule="evenodd" clip-rule="evenodd" fill="#E5D57A" d="M165.412,196.881c1.804-1.383,3.609-2.769,5.413-4.152
		c0,0,0.439-0.399,0.439-0.399c0.587-0.479,1.174-0.958,1.761-1.436c2.149-1.441,4.297-2.882,6.446-4.324
		c-2.25,6.88-4.499,13.762-6.559,20.06c-5.876,0.382-9.435,0.613-12.188,0.792c-6.704,5.673-7.549,11.715-2.596,19.083
		c-2.66,1.89-5.013,3.562-7.364,5.232c0.011-0.454-0.009-0.906-0.062-1.357c-0.438-1.375-0.877-2.747-1.316-4.121
		c-0.132-2.5-0.265-5-0.311-5.883c-3.543-1.071-5.741-1.735-7.938-2.398c2.693-1.942,5.388-3.884,8.082-5.824
		c0.391,0.187,0.783,0.373,1.333,0.636c0.077-0.85,0.114-1.255,0.151-1.662c2.335-2.479,4.671-4.961,7.007-7.444
		c0.872-0.68,1.743-1.356,2.614-2.034c0.465-0.335,0.931-0.67,1.396-1.006c1.053-1.018,2.105-2.034,3.158-3.051
		C165.207,197.469,165.384,197.231,165.412,196.881z"/>
	<path fill-rule="evenodd" clip-rule="evenodd" fill="#D8C978" d="M141.139,217.978c2.197,0.664,4.395,1.327,7.938,2.398
		c0.046,0.883,0.179,3.383,0.311,5.883c0,0,0.003,0.001,0.003,0.002c-1.368-0.005-2.734-0.011-4.102-0.016
		c-0.665-0.932-1.33-1.864-2.531-3.55c-0.763,1.856-1.147,2.79-1.53,3.722c-2.923,2.224-5.845,4.446-7.661,5.827
		c3.047,3.686,4.74,5.734,6.434,7.783l-0.122,0.076c-0.623,0.333-1.246,0.669-1.869,1.003c-1.912,0.752-3.825,1.503-7.041,2.767
		c5.004,4.175,6.951,5.798,8.897,7.422c-7.426,2.998-6.573-4.558-9.479-7.315c-2.633-1.612-5.289-3.201-8.503-5.126
		c-0.483,1.451-0.925,2.777-1.367,4.103c-0.394-0.136-0.798-0.188-1.213-0.156c0.113-2.667,0.227-5.333,0.34-8
		c0,0-0.181-0.13-0.182-0.131c0.919-0.887,1.84-1.771,2.76-2.655C128.528,227.337,134.833,222.657,141.139,217.978z"/>
	<path fill-rule="evenodd" clip-rule="evenodd" fill="#282516" d="M122.222,232.016c-0.92,0.884-1.841,1.768-2.76,2.655
		c0.841-1.564,1.68-3.128,2.52-4.694C122.062,230.655,122.142,231.336,122.222,232.016z"/>
	<path fill-rule="evenodd" clip-rule="evenodd" fill="#524A32" d="M164.879,197.593c-1.052,1.018-2.105,2.034-3.158,3.051
		C162.774,199.628,163.827,198.611,164.879,197.593z"/>
	<path fill-rule="evenodd" clip-rule="evenodd" fill="#D8C978" d="M150.703,211.128c-0.036,0.406-0.073,0.812-0.15,1.662
		c-0.55-0.263-0.942-0.449-1.333-0.636C149.715,211.812,150.209,211.47,150.703,211.128z"/>
	<path fill-rule="evenodd" clip-rule="evenodd" fill="#524A32" d="M160.325,201.65c-0.871,0.677-1.743,1.354-2.614,2.034
		C158.583,203.007,159.454,202.329,160.325,201.65z"/>
	<path fill-rule="evenodd" clip-rule="evenodd" fill="#3C3B28" d="M234.883,138.582c1.285,0.14,2.571,0.28,3.856,0.42
		c-3.003,2.343-6.007,4.685-9.01,7.027c-0.929-0.209-1.859-0.42-2.79-0.632C229.587,143.125,232.236,140.853,234.883,138.582z"/>
	<path fill-rule="evenodd" clip-rule="evenodd" fill="#3C3B28" d="M228.396,148.308c-0.824,0.554-1.65,1.11-2.475,1.664
		C226.746,149.417,227.571,148.863,228.396,148.308z"/>
	<path fill-rule="evenodd" clip-rule="evenodd" fill="#3C3B28" d="M219.525,155.039c-0.559,0.523-1.118,1.047-1.676,1.569
		C218.408,156.084,218.967,155.562,219.525,155.039z"/>
	<path fill-rule="evenodd" clip-rule="evenodd" fill="#3C3B28" d="M224.789,151.013c-0.504,0.454-1.008,0.91-1.512,1.364
		C223.781,151.923,224.285,151.467,224.789,151.013z"/>
	<path fill-rule="evenodd" clip-rule="evenodd" fill="#E5D768" d="M271.102,246.78c0.247-1.948,0.494-3.897,0.654-5.162
		c6.838-3.086,12.818-5.785,20.38-9.199c-9.92-2.066-18.793-3.914-28.632-5.964c-1.479,1.652-3.694,4.125-6.421,7.17
		c-2.535-1.856-4.833-3.538-7.485-5.479c-0.319-2.653-0.661-5.483-1.136-9.423c2.311,1.443,3.621,2.262,5.014,3.131
		c1.961-1.807,3.618-3.333,5.274-4.861c0.303-0.052,0.607-0.076,0.914-0.072c0.123,0.437,0.311,0.844,0.563,1.222
		c0.468,0.706,0.937,1.413,1.404,2.119c0.286,0.378,0.662,0.609,1.128,0.693c1.022,0.542,2.044,1.085,3.064,1.628
		c1.684,0.079,3.367,0.157,5.05,0.238c0.766-0.517,1.531-1.033,2.296-1.548c0.66-0.633,1.319-1.265,1.979-1.898
		c5.673-2.931,4.981-7.022,2.095-11.51c-1.253-1.806-2.506-3.611-3.758-5.416c1.555-3.465,3.109-6.931,4.664-10.395
		c2.462-0.43,4.924-0.86,7.557-1.321c0.77,7.873,1.38,14.117,1.855,18.976c-4.266,2.014-7.161,3.381-17.271,8.157
		c21.283,2.268,30.057,1.857,30.9-11.485c0.446-7.048,0.911-14.096,1.367-21.145c0.591-0.144,1.182-0.29,1.772-0.434l-0.426,0.319
		c0,0,0.44-0.296,0.439-0.296c1.244,1.493,2.489,2.986,3.734,4.479l-0.024-0.021c0.59,0.428,1.181,0.856,1.771,1.285
		c0.354,0.028,0.685-0.05,0.989-0.235c1.17,1.134,2.34,2.268,3.51,3.403c2.059,3.778,4.117,7.556,6.176,11.335
		c0.794,0.685,1.588,1.368,2.383,2.051c0.107,0.696,0.216,1.392,0.324,2.087c0.593,0.614,1.186,1.227,1.778,1.842
		c2.371,2.847,4.742,5.696,7.112,8.543c-0.876,1.345-1.753,2.689-3.025,4.641c-1.788-2.957-3.015-4.985-5.671-9.379
		c-2.354,7.522-4.076,13.033-6.139,19.626c-5.692,0-12.16,0-19.162,0c-1.548,21.97-18.769,6.188-26.997,12.297H271.102z"/>
	<path fill-rule="evenodd" clip-rule="evenodd" fill="#E4D469" d="M322.883,207.123c-0.795-0.684-1.589-1.366-2.383-2.051
		C321.294,205.755,322.088,206.439,322.883,207.123z"/>
	<path fill-rule="evenodd" clip-rule="evenodd" fill="#E4D469" d="M324.985,211.052c-0.593-0.615-1.186-1.228-1.778-1.842
		C323.799,209.823,324.393,210.438,324.985,211.052z"/>
	<path fill-rule="evenodd" clip-rule="evenodd" fill="#E7D971" d="M302.559,185.237c-0.456,7.049-0.921,14.096-1.367,21.145
		c-0.844,13.343-9.617,13.753-30.9,11.485c10.109-4.776,13.005-6.144,17.271-8.157c-0.476-4.858-1.086-11.103-1.855-18.976
		c-2.633,0.46-5.095,0.891-7.557,1.321c-1.216-1.17-2.43-2.34-3.646-3.51c-0.077-0.29-0.249-0.501-0.516-0.636
		c0.062-0.453,0.124-0.905,0.186-1.358c3.982-8.351-5.732-2.979-6.627-6.906c4.12,0,8.158,0,11.306,0
		c4.753-3.534,8.748-6.504,12.743-9.474c2.015,1.639,4.029,3.276,6.044,4.915c0,0,0.164,0.092,0.161,0.094
		c0.932,1.258,1.864,2.513,2.797,3.77l-0.273,0.272c0,0,0.33-0.199,0.327-0.196c0.573,0.716,1.15,1.429,1.728,2.142
		c0.146,0.716,0.291,1.431,0.436,2.148C302.729,183.958,302.644,184.598,302.559,185.237z"/>
	<path fill-rule="evenodd" clip-rule="evenodd" fill="#D5C76E" d="M297.64,175.086c-2.015-1.639-4.029-3.276-6.044-4.913
		c-0.473-0.888-0.947-1.775-1.421-2.663c0.169-0.172,0.33-0.35,0.485-0.533C292.987,169.681,295.313,172.383,297.64,175.086z"/>
	<path fill-rule="evenodd" clip-rule="evenodd" fill="#D5C76E" d="M300.598,178.95c-0.933-1.257-1.865-2.512-2.797-3.77
		C298.734,176.437,299.666,177.693,300.598,178.95z"/>
	<path fill-rule="evenodd" clip-rule="evenodd" fill="#D5C76E" d="M302.379,181.168c-0.577-0.713-1.154-1.426-1.728-2.142
		C301.229,179.738,301.805,180.454,302.379,181.168z"/>
	<path fill-rule="evenodd" clip-rule="evenodd" fill="#D5C76E" d="M302.559,185.237c0.085-0.64,0.171-1.279,0.256-1.92
		c0.405,0.028,0.811,0.048,1.216,0.058c0.1,0.477,0.199,0.954,0.3,1.43C303.74,184.948,303.149,185.093,302.559,185.237z"/>
	<path fill-rule="evenodd" clip-rule="evenodd" fill="#E7D776" d="M150.765,231.737c2.352-1.671,4.704-3.343,7.364-5.232
		c-4.953-7.368-4.108-13.41,2.596-19.083c2.753-0.179,6.312-0.41,12.188-0.792c2.06-6.298,4.309-13.18,6.559-20.06
		c3.65-2.722,7.3-5.443,10.95-8.165c1.185,1.653,2.37,3.305,4.038,5.631c4.307-1.315,8.679-2.651,14.632-4.468
		c9.111,6.29,11.538-10.008,21.651-8.249c1.434-18.27,18.318-16.718,29.416-23.004c-6.302,4.809-12.604,9.62-19.204,14.657
		c-5.764,15.139-19.714,19.853-33.323,24.921c-5.249,5.928-10.547,11.894-15.845,17.859c-5.014,1.824-10.028,3.648-15.042,5.471
		c-3.645,1.607-7.291,3.212-10.942,4.82c0,10.354,0,19.868,0,29.383c-2.284-1.365-4.568-2.73-6.853-4.095
		c-0.162-1.888,4.776-4.927-1.239-5.494c-0.794-0.336-1.588-0.674-2.381-1.012c-1.517-0.713-3.034-1.424-4.551-2.136
		C150.76,232.373,150.756,232.055,150.765,231.737z"/>
	<path fill-rule="evenodd" clip-rule="evenodd" fill="#524A32" d="M173.025,190.895c-0.587,0.478-1.174,0.956-1.761,1.436
		C171.851,191.852,172.438,191.374,173.025,190.895z"/>
	<path fill-rule="evenodd" clip-rule="evenodd" fill="#D9CC74" d="M413.228,347.938c-0.401-0.847-0.804-1.693-1.206-2.54
		c0.383-0.521,0.766-1.04,1.148-1.561c0.501,0.006,1.003,0.012,1.504,0.019c0.338,0.357,0.676,0.714,1.016,1.073
		C414.869,345.934,414.049,346.937,413.228,347.938z"/>
	<path fill-rule="evenodd" clip-rule="evenodd" fill="#E5D57A" d="M324.63,418.478c1.579-9.721-3.319-21.479,10.17-29.135
		c3.48,4.688,6.898,9.291,10.315,13.896c-1.545,1.331-3.092,2.663-4.639,3.993c-2.103,1.731-4.204,3.464-6.308,5.194
		C330.989,414.442,327.81,416.461,324.63,418.478z"/>
	<path fill-rule="evenodd" clip-rule="evenodd" fill="#D5C76E" d="M308.079,189.305c-1.245-1.493-2.49-2.986-3.734-4.479
		C305.591,186.319,306.834,187.812,308.079,189.305z"/>
	<path fill-rule="evenodd" clip-rule="evenodd" fill="#524A32" d="M310.814,190.333c-0.305,0.185-0.635,0.263-0.99,0.235
		c-0.126-0.413-0.3-0.802-0.521-1.171C309.808,189.71,310.311,190.021,310.814,190.333z"/>
	<path fill-rule="evenodd" clip-rule="evenodd" fill="#D5C76E" d="M309.304,189.397c0.221,0.369,0.395,0.758,0.521,1.171
		c-0.589-0.428-1.18-0.857-1.77-1.285C308.469,189.349,308.885,189.388,309.304,189.397z"/>
	<path fill-rule="evenodd" clip-rule="evenodd" fill="#221E16" d="M413.17,343.837c-0.383,0.521-0.766,1.04-1.148,1.561
		c-3.234,2.351-6.468,4.701-9.701,7.052c-0.321-1.667-0.643-3.334-0.964-5c2.173-1.859,4.346-3.718,15.201-13
		c-12.228,6.107-13.944,6.965-15.661,7.822c-1.243-0.047-2.486-0.094-3.73-0.141c-1.018-0.168-2.033-0.335-3.049-0.502
		c-0.427-0.186-0.854-0.371-1.28-0.556c-0.462-0.361-0.924-0.723-1.385-1.084l-0.222-0.224c-0.402-0.465-0.806-0.929-1.208-1.396
		c-0.379-0.657-0.757-1.315-1.135-1.975c0.398-3.647,0.797-7.292,1.194-10.937c0.483-0.522,0.968-1.043,1.451-1.565
		c0.197-0.121,0.392-0.247,0.585-0.376c0.529,0.758,1.058,1.516,1.587,2.271c1.018-0.377,2.035-0.751,3.053-1.125l0.135-0.106
		c1.364-0.025,2.729-0.05,4.093-0.075c0,0,0.197,0.235,0.196,0.233c-0.064,1.352-0.129,2.702-0.192,4.054
		c-0.89,0.083-1.778,0.165-2.668,0.248c-1.601,1.42-3.201,2.84-7.828,6.943c6.575-0.756,8.877-1.021,11.179-1.285
		c0.369-0.302,0.739-0.602,1.109-0.905c0.983-0.621,1.967-1.24,2.951-1.861c0.344,0.066,0.582-0.062,0.717-0.386
		c1.829,1.418,3.659,2.838,5.488,4.256c0.289,0.437,0.579,0.875,0.87,1.313C412.93,339.34,413.05,341.588,413.17,343.837z"/>
	<path fill-rule="evenodd" clip-rule="evenodd" fill="#282516" d="M149.449,279.421c0.415,0.502,0.83,1.004,1.245,1.506
		C150.279,280.426,149.864,279.924,149.449,279.421z"/>
	<path fill-rule="evenodd" clip-rule="evenodd" fill="#E7D973" d="M191.786,205.753c5.298-5.966,10.596-11.931,15.845-17.859
		c13.609-5.068,27.559-9.782,33.323-24.921c6.6-5.038,12.902-9.848,19.204-14.657c0.918-4.563,1.835-9.125,2.753-13.687
		c6.848,8.207,13.695,16.412,20.541,24.618c-0.167,1.52-0.333,3.04-0.492,4.488c-3.672,0.192-6.919,0.361-10.102,0.528
		c-1.595-2.233-3.012-4.218-4.621-6.469c-2.446,0.294-4.796,0.577-6.678,0.803c-2.287,6.272-4.282,11.746-5.073,13.913
		c-3.962,4.532-5.677,6.494-7.392,8.458c-3.605,0.968-7.211,1.936-10.816,2.904c-7.954-2.119-15.607-3.397-19.142,6.843
		c-0.909,1.821-1.817,3.643-2.727,5.464c-4.317,0.81-8.635,1.619-12.624,2.368c-0.413,3.334-0.736,5.955-1.061,8.574
		c-3.19,0.001-6.381,0.001-9.572,0.002C192.698,206.667,192.242,206.209,191.786,205.753z"/>
	<path fill-rule="evenodd" clip-rule="evenodd" fill="#E7D973" d="M260.128,133.254c0.013-0.448,0.024-0.896,0.036-1.344
		c0.916,0.906,1.833,1.813,2.749,2.719C261.984,134.172,261.057,133.712,260.128,133.254z"/>
	<path fill-rule="evenodd" clip-rule="evenodd" fill="#E5D768" d="M249.094,180.965c1.716-1.962,3.431-3.924,7.393-8.456
		c0.791-2.167,2.786-7.641,5.073-13.913c1.882-0.226,4.231-0.509,6.678-0.803c1.609,2.251,3.026,4.236,4.621,6.469
		c3.183-0.167,6.43-0.335,10.102-0.528c0.159-1.449,0.325-2.969,0.492-4.488c0.793,0.108,1.585,0.216,2.375,0.326
		c1.448,2.647,2.899,5.292,4.348,7.938c0.474,0.888,0.948,1.775,1.421,2.663c-3.995,2.969-7.99,5.939-12.743,9.473
		c-3.147,0-7.186,0-11.306,0c0.895,3.926,10.609-1.445,6.626,6.906c-2.401-0.402-4.802-0.806-7.202-1.208
		c-2.344,1.208-4.687,2.418-7.03,3.628c-0.507,0.51-1.015,1.019-1.521,1.529c-0.406,0.176-0.689,0.473-0.85,0.885
		c-1.339-3.495-2.678-6.99-4.313-11.258c-0.797,0.223-2.362,0.661-3.928,1.099L249.094,180.965z M262.761,182.557
		C261.047,181.251,261.431,181.545,262.761,182.557C261.972,181.091,261.746,180.671,262.761,182.557z"/>
	<path fill-rule="evenodd" clip-rule="evenodd" fill="#E9DB6B" d="M193.154,207.123c3.191-0.001,6.381-0.001,9.572-0.002
		c8.351,0,16.702,0,25.811,0c-0.269-3.47-0.413-5.321-0.541-6.973c-3.41-1.003-6.134-1.804-8.859-2.607
		c2.733-0.911,5.467-1.823,8.2-2.733c0.45,0.891,0.899,1.781,1.448,2.87c1.625-0.605,2.831-1.052,4.036-1.501
		c2.677,0.294,5.354,0.586,6.828,0.748c0,6.967,0,12.687,0,18.408c-1.836,9.558,9.545,26.108-11.773,25.552
		c-2.389,5.02-4.88,10.25-7.37,15.481c-8.709-5.262,5.024-16.929-6.133-21.492c-0.645-0.183-1.288-0.366-1.933-0.548
		c-2.658-0.745-5.315-1.489-7.973-2.233c-1.931-1.436-3.862-2.873-5.792-4.308c-1.676-0.931-3.352-1.862-5.038-2.799
		c1.205-5.511,2.458-10.802-3.4-14.495C191.436,209.106,192.295,208.115,193.154,207.123z"/>
	<path fill-rule="evenodd" clip-rule="evenodd" fill="#1C1509" d="M249.331,287.504c-0.601-1.254-1.201-2.508-1.802-3.764
		c2.063-4.252,4.128-8.504,6.545-13.487c-0.506-0.43-1.759-1.494-3.011-2.56c1.508-0.871,3.017-1.74,2.98-1.72
		c3.992,0,6.409,0,8.825,0c0.513,0.402,1.025,0.805,1.537,1.208l-0.002-0.01c0.16,0.78,0.32,1.558,0.646,3.14
		c1.091-0.999,1.626-1.489,2.161-1.979c0.556-1.208,1.111-2.418,1.667-3.628c0.736-0.059,1.472-0.117,2.208-0.176
		c0.462,1.835,0.924,3.668,1.386,5.502c-0.088,0.153-0.176,0.306-0.265,0.459c0.087-0.155,0.174-0.308,0.26-0.463
		c2.529,2.365,5.057,4.729,7.585,7.094c0.211,0.823,0.42,1.646,0.631,2.469c0.619,0.179,1.239,0.358,1.858,0.537l0.415,0.092
		c0.515,2.674,1.03,5.346,1.546,7.981c-0.795,2.64-1.591,5.319-2.387,7.997c-0.042,0.383-0.096,0.764-0.16,1.142
		c-0.87,0.219-1.741,0.438-2.611,0.658c-7.412,0.598-12.582-2.067-13.568-8.962c-5.541,0-10.336,0-15.129,0l0.085,0.069
		C250.265,288.569,249.798,288.037,249.331,287.504z"/>
	<path fill-rule="evenodd" clip-rule="evenodd" fill="#D5C76E" d="M158.948,241.333c2.285,1.365,4.569,2.729,6.853,4.093
		c3.383,0,6.766,0,10.583,0c-5.113-11.306,3.874-11.722,8.565-15.044c1.346-0.466,2.692-0.932,4.039-1.398
		c-0.988,1.274-1.977,2.548-2.965,3.822c-9.643,2.704-3.973,10.063-4.703,15.475c-0.811,4.306-1.621,8.611-2.5,13.284
		c6.024,1.589,11.346,2.993,16.668,4.396c-4.536,0.217-9.071,0.435-12.74,0.611c-1.992,3.875-3.289,6.4-4.587,8.924
		c-1.11-4.166-2.22-8.331-3.363-12.62c-5.991,0.4-10.355,8.389-16.3,1.042c2.9-2.258,5.407-4.211,11.77-9.167
		c-7.568,1.843-10.092,2.458-12.615,3.073c-2.308-1.166-4.615-2.333-6.922-3.499c1.834-2.048,3.669-4.099,5.504-6.147
		c0.131-0.138,0.396-0.314,0.371-0.406c-0.079-0.28-0.271-0.527-0.419-0.787l-0.212-0.212c-0.781-0.948-1.561-1.896-2.342-2.845
		c-0.161-0.9-0.322-1.8-0.482-2.699c0.726-2.134,1.452-4.268,2.177-6.402c0.794,0.336,1.588,0.674,2.381,1.011
		c-0.001,0.461-0.001,0.921-0.002,1.382c-0.053,0.451-0.07,0.904-0.053,1.358C158.085,239.496,158.517,240.415,158.948,241.333z
		 M177.329,264.83c0.136-0.036,0.273-0.073,0.409-0.111c-0.046-0.156-0.063-0.336-0.157-0.456c-0.034-0.044-0.255,0.062-0.391,0.099
		C177.237,264.519,177.283,264.675,177.329,264.83z"/>
	<path fill-rule="evenodd" clip-rule="evenodd" fill="#352A09" d="M320.34,291.938c2.34-0.727,4.679-1.453,7.019-2.18
		c0.823,0.23,1.645,0.459,2.468,0.689c-1.366,1.2-2.732,2.402-4.816,4.234c5.427,3.678,10.042,6.807,16.612,11.262
		c1.669-7.312,2.835-12.418,4.047-17.724c-3.581-1.587-5.765-2.554-7.147-3.167c-3.491,1.143-6.01,1.967-8.527,2.791
		c-1.087-0.393-2.175-0.784-3.262-1.175c-2.956-0.843-5.91-1.685-8.865-2.526c2.305-1.89,4.609-3.78,5.991-4.912
		c4.039,0.952,7.166,1.688,10.292,2.425c0.167-0.414,0.454-0.714,0.861-0.9c0.505-0.506,1.009-1.013,1.514-1.52
		c5.789-6.499,11.145-3.223,16.47,0.732c-0.013,0.51,0.228,0.833,0.719,0.969c-0.94,4.251-1.88,8.502-2.975,13.453
		c0.623,0.756,1.85,2.248,3.076,3.738c-0.226,0.664-0.45,1.326-0.676,1.988c-4.296,5.545-9.522,8.864-16.89,7.058
		c-0.32-0.012-0.641,0.001-0.958,0.04c-1.326-0.085-2.652-0.171-3.979-0.255c-0.493,0.382-0.986,0.764-1.479,1.147l0.089,0.374
		c-1.372-0.004-2.744-0.009-4.117-0.013c-1.455-1.231-2.91-2.463-4.365-3.695C321.074,300.493,320.707,296.215,320.34,291.938z
		 M334.523,303.089C327.239,303.971,328.32,303.84,334.523,303.089C328.279,303.089,327.23,303.089,334.523,303.089z"/>
	<path fill-rule="evenodd" clip-rule="evenodd" fill="#0A0A07" d="M195.488,265.961c-5.322-1.404-10.644-2.807-16.668-4.396
		c0.879-4.673,1.689-8.979,2.5-13.284c1.249-0.48,2.498-0.961,3.746-1.443c7.256,0.427,14.513,0.853,21.771,1.281
		c0.908,0.011,1.816,0.021,2.725,0.033c0.414,0.92,0.828,1.842,1.241,2.763c0.479,0.456,0.958,0.912,1.437,1.368
		c0.262,0.263,0.341,0.571,0.238,0.928c-0.508,3.335-1.016,6.669-1.524,10.004c-0.293,0.634-0.587,1.269-0.956,2.064
		c1.095,0.299,1.697,0.463,2.298,0.627c0.036,0.991,0.072,1.983,0.107,2.974c-0.086,0.474-0.171,0.948-0.255,1.42
		c-0.419-0.065-0.839-0.143-1.257-0.231c-2.389,0.057-4.778,0.113-7.167,0.171c-0.829-0.343-1.657-0.688-2.485-1.03
		c-0.409-0.179-0.818-0.359-1.227-0.54c-0.469,0.028-0.938,0.058-1.407,0.085C197.566,267.824,196.527,266.892,195.488,265.961z"/>
	<path fill-rule="evenodd" clip-rule="evenodd" fill="#352A09" d="M270.585,367.354c-3.534-3.68-10.014,5.076-12.514-2.965
		c1.854-0.108,3.708-0.218-0.116,0.008c3.655-1.067,1.869-0.546,0.082-0.024c-0.149,0.362-0.299,0.725-0.509,1.231
		c-0.603-0.229-1.166-0.444-1.729-0.662c-0.366-4.279-0.733-8.557-1.101-12.834c2.34-0.727,4.679-1.453,7.019-2.18
		c0.822,0.229,1.645,0.46,2.467,0.689c-1.366,1.2-2.732,2.402-4.815,4.234c5.427,3.678,10.042,6.809,16.612,11.263
		c1.669-7.313,2.835-12.419,4.046-17.725c-3.582-1.587-5.765-2.554-7.146-3.167c-3.492,1.144-6.01,1.968-8.527,2.79
		c-1.088-0.391-2.175-0.782-3.263-1.174c-2.955-0.843-5.91-1.686-8.865-2.526c2.312-1.896,4.622-3.79,6.71-5.502
		c2.531,0.877,4.643,1.61,6.754,2.342c4.932-1.726,9.863-3.449,14.794-5.175c2.104,1.251,4.209,2.503,6.313,3.754
		c0.274,0.344,0.55,0.687,0.824,1.03l0.209,0.255c-0.975,4.928-1.949,9.856-2.925,14.786c0.817,0.589,1.635,1.179,2.452,1.77
		c0.344,0.208,0.586,0.502,0.726,0.879c-0.194,0.611-0.389,1.223-0.583,1.835C283.202,365.854,277.95,369.132,270.585,367.354z"/>
	<path fill-rule="evenodd" clip-rule="evenodd" fill="#352A09" d="M257.569,191.389c0.16-0.414,0.443-0.71,0.851-0.887
		c0.507-0.51,1.014-1.019,1.521-1.529c2.344-1.21,4.687-2.42,7.03-3.628c2.339,0.855,4.679,1.709,7.018,2.565
		c0.267,0.135,0.438,0.346,0.515,0.636c-0.34,4.635-0.679,9.27-1.018,13.905c1.252,1.804,2.505,3.61,3.757,5.416
		c-0.229,0.665-0.456,1.329-0.684,1.994c-4.296,5.549-9.528,8.858-16.895,7.062c-0.307-0.004-0.611,0.02-0.914,0.072
		c-4.096-0.427-8.192-0.856-12.288-1.286c-1.486-3.933-2.973-7.867-4.459-11.8c3.53-2.058,7.062-4.116,10.592-6.174
		c-0.972,2.194-1.945,4.39-3.244,7.322c4.514,3.053,9.142,6.182,15.758,10.656c1.627-7.398,2.756-12.529,3.929-17.862
		c-3.651-1.541-5.858-2.472-6.72-2.835c-4.263,1.084-7.041,1.791-9.818,2.497c-1.094-0.446-2.188-0.891-3.281-1.337
		c1.355-1.81,2.712-3.62,4.067-5.431C254.713,190.958,256.142,191.174,257.569,191.389z M257.943,212.832
		C250.646,213.716,251.736,213.585,257.943,212.832C251.698,212.832,250.649,212.832,257.943,212.832z"/>
	<path fill-rule="evenodd" clip-rule="evenodd" fill="#E7D776" d="M305.391,379.079c1.857-5.801,3.518-10.983,5.193-16.218
		c9.702,1.951,5.883,8.885,7.473,13.801c1.393,1.488,3.051,3.259,5.357,5.724c-12.817,4.113-24.913,7.994-37.029,11.884
		C284.548,387.741,284.548,387.741,305.391,379.079z"/>
	<path fill-rule="evenodd" clip-rule="evenodd" fill="#E4D469" d="M353.816,298.127c-1.228-1.49-2.454-2.982-3.077-3.738
		c1.095-4.951,2.034-9.202,2.975-13.453c2.813,0.255,5.625,0.512,7.842,0.712c0.978,7.305,1.78,13.296,2.573,19.217
		c-2.387,1.351-4.116,2.328-2.188,1.238c-5.13,7.221-7.896,11.386-11.135,15.143c-0.251,0.292-3.827-2.285-5.858-3.528
		c0.835-0.216,1.668-0.433,2.502-0.649c0.764-0.515,1.528-1.032,2.293-1.548c1.1-1.087,2.199-2.175,3.299-3.262
		C353.301,304.882,353.559,301.505,353.816,298.127z"/>
	<path fill-rule="evenodd" clip-rule="evenodd" fill="#D5C76E" d="M280.684,279.588c-0.211-0.823-0.42-1.646-0.631-2.469
		c1.545-1.104,3.09-2.208,4.635-3.312c1.059-1.7,2.117-3.4,3.175-5.1c0.347-0.039,0.693-0.067,1.041-0.085
		c0,0.92,0.001,1.841,0.001,2.762c1.352,0.919,2.703,1.837,4.055,2.756c2.607,0.684,5.215,1.369,8.939,2.347
		c-5.068,9.937-6.231,21.223-19.942,20.851c0.064-0.378,0.118-0.759,0.16-1.142c6.489-4.999,9.687-10.171,0.841-15.978
		c0,0-0.415-0.092-0.416-0.089C281.921,279.95,281.302,279.769,280.684,279.588z"/>
	<path fill-rule="evenodd" clip-rule="evenodd" fill="#241B0C" d="M391.533,323.894c-0.483,0.522-0.968,1.043-1.451,1.565
		c-0.867,0.501-1.734,1.002-2.601,1.504c-1.102-0.415-2.201-0.831-3.304-1.245c-1.712-0.869-3.423-1.738-5.134-2.609
		c-0.868,0.224-1.735,0.446-2.603,0.671c-1.951-1.63-3.902-3.259-8.881-7.415c3.21-1.27,5.121-2.027,7.032-2.785
		c0.62-0.333,1.24-0.667,1.86-0.999l0.128-0.082c1.343-1.466,2.685-2.934,4.027-4.401c1.327-0.382,2.655-0.764,3.983-1.146
		c1.724,2.256,3.447,4.51,5.171,6.766c0.158,0.891,0.317,1.78,0.477,2.672c1.01,1.465,2.02,2.931,3.029,4.396
		c0.233,0.445,0.175,0.844-0.179,1.202C392.571,322.624,392.052,323.26,391.533,323.894z"/>
	<path fill-rule="evenodd" clip-rule="evenodd" fill="#241B0C" d="M153.15,241.229c0.16,0.899,0.321,1.799,0.482,2.699
		c0.781,0.948,1.561,1.896,2.342,2.845c0,0,0.212,0.212,0.212,0.211c-0.093,0.402-0.077,0.8,0.049,1.194
		c-1.835,2.048-3.67,4.099-5.504,6.147c-1.043-0.364-2.086-0.729-3.13-1.092c-1.714-0.868-3.428-1.737-5.142-2.607
		c-0.864,0.223-1.728,0.446-2.592,0.67c-1.947-1.624-3.894-3.248-8.897-7.422c3.215-1.264,5.128-2.015,7.042-2.767
		c0.623-0.334,1.246-0.669,1.868-1.003l0.122-0.076c3.197-0.851,6.395-1.703,9.732-2.591c-0.199-0.345-0.953-1.656-1.707-2.969
		l-0.004,0.004C149.729,236.725,151.44,238.977,153.15,241.229z"/>
	<path fill-rule="evenodd" clip-rule="evenodd" fill="#E4D469" d="M352.995,279.968c-5.325-3.955-10.681-7.23-16.47-0.732
		c-0.505,0.506-1.009,1.014-1.514,1.52c-0.407,0.186-0.694,0.486-0.861,0.9c-1.048-3.832-2.097-7.663-3.146-11.493
		c2.046-2.656,4.091-5.313,5.962-7.743c4.722,1.477,7.891,2.468,11.168,3.492C349.821,270.791,351.408,275.379,352.995,279.968z"/>
	<path fill-rule="evenodd" clip-rule="evenodd" fill="#221E16" d="M157.653,257.824c2.523-0.614,5.047-1.23,12.615-3.073
		c-6.363,4.956-8.869,6.908-11.77,9.167c5.945,7.348,10.309-0.641,16.3-1.042c1.143,4.29,2.253,8.455,3.363,12.62l-0.047,0.072
		c-0.633,0.445-1.267,0.891-1.901,1.337c-0.261,0.488-0.521,0.977-0.782,1.464c-0.4,0.442-0.8,0.884-1.2,1.325
		c-0.543,0.31-1.086,0.62-1.629,0.93l-0.219,0.266l-0.342-0.04c0.001,0-0.342,0.125-0.342,0.125
		c-1.424,1.118-2.849,2.235-6.439,5.053c0.884-3.872,1.186-5.193,1.488-6.517c0.271-0.105,0.408-0.304,0.411-0.597
		c0.661-0.331,1.321-0.663,1.982-0.994c0.663-0.441,1.324-0.883,1.986-1.325l-0.104,0.06c0.591-1.446,1.182-2.891,1.772-4.338
		c-1.341-0.186-2.683-0.371-4.024-0.557c-0.893,0.399-1.785,0.798-2.678,1.198c-2.954-1.051-5.908-2.101-9.345-3.324
		c-0.599-2.489-1.224-5.083-1.849-7.676l0.023-0.162c0.397-0.536,0.794-1.073,1.192-1.608
		C156.626,259.4,157.14,258.612,157.653,257.824z"/>
	<path fill-rule="evenodd" clip-rule="evenodd" fill="#E4D469" d="M252.595,197.733c-3.53,2.058-7.062,4.116-10.592,6.175
		c-0.301,2.823-0.604,5.647-0.905,8.471c-0.483,0.984-0.966,1.969-1.449,2.953c0-5.721,0-11.441,0-18.408
		c-1.474-0.162-4.151-0.454-6.828-0.748c-0.41-2.14-0.82-4.28-1.156-6.031c2.552-2.421,4.583-4.347,6.614-6.274
		c3.605-0.968,7.21-1.937,10.816-2.904c-0.001-0.001,0.234,0.262,0.234,0.262c-0.051,0.422-0.092,0.844-0.125,1.266
		c-0.476,0.409-0.951,0.816-1.428,1.225c-0.892,0.959-1.784,1.918-2.676,2.878c-0.51,0.323-1.02,0.646-1.528,0.97
		c-0.564,0.557-1.128,1.115-1.691,1.673c-0.346,0.361-0.691,0.72-1.037,1.079c-0.002,1.159-0.004,2.318-0.005,3.478
		c2.793,0.793,5.586,1.585,8.379,2.378c1.094,0.446,2.188,0.891,3.284,1.337C252.506,197.51,252.595,197.733,252.595,197.733z"/>
	<path fill-rule="evenodd" clip-rule="evenodd" fill="#D5C76E" d="M251.063,267.693c1.252,1.066,2.505,2.13,3.011,2.56
		c-2.417,4.983-4.481,9.235-6.545,13.487c-10.532-4.977-7.894-11.92-2.866-19.22C246.796,265.578,248.93,266.636,251.063,267.693z
		 M248.014,272.215C248.276,274.391,248.218,273.909,248.014,272.215C247.507,273.84,247.364,274.299,248.014,272.215z"/>
	<path fill-rule="evenodd" clip-rule="evenodd" fill="#E4D469" d="M325.806,308.467c1.373,0.004,2.745,0.009,4.117,0.013
		c-0.19,1.03-0.381,2.059-0.837,4.523c2.82-2.631,4.513-4.209,6.206-5.789c0.317-0.039,0.638-0.052,0.958-0.04
		c2.096,2.151,4.191,4.303,6.287,6.453c-2.744,2.491-5.487,4.98-8.283,7.518c-3.007-1.393-5.218-2.419-8.448-3.916
		C325.806,314.5,325.806,311.483,325.806,308.467z"/>
	<path fill-rule="evenodd" clip-rule="evenodd" fill="#352A09" d="M251.063,267.693c-2.134-1.058-4.268-2.115-6.4-3.173
		c1.607-1.795,3.214-3.59,4.821-5.386c1.192-1.03,2.385-2.058,3.576-3.087l0.212,0.279c0,0-0.241-0.253-0.241-0.252
		c2.698,0.314,5.395,0.629,7.929,0.924c0.608,2.861,1.259,5.919,1.909,8.976c-2.416,0-4.833,0-8.825,0
		C254.08,265.953,252.571,266.823,251.063,267.693z"/>
	<path fill-rule="evenodd" clip-rule="evenodd" fill="#D5C76E" d="M250.647,289.033c4.793,0,9.588,0,15.129,0
		c0.986,6.895,6.156,9.561,13.568,8.962c-2.471,1.711-4.94,3.421-6.143,4.253C264.915,297.393,257.781,293.213,250.647,289.033z"/>
	<path fill-rule="evenodd" clip-rule="evenodd" fill="#D2BE4D" d="M212.478,253.21c0.103-0.356,0.023-0.665-0.238-0.928
		c0.456-1.938,0.912-3.875,1.369-5.811c0.254-3.866,0.509-7.732,0.764-11.598c11.157,4.563-2.577,16.23,6.133,21.492
		c-2.197,4.097-4.395,8.194-6.594,12.292C215.866,263.282,220.596,257.65,212.478,253.21z"/>
	<path fill-rule="evenodd" clip-rule="evenodd" fill="#62501B" d="M331.006,270.163c1.048,3.83,2.097,7.662,3.145,11.493
		c-3.126-0.737-6.253-1.473-10.292-2.425c-1.382,1.132-3.687,3.022-5.991,4.912c-3.586-8.168,7.213-7.236,7.993-12.639
		c0.892-0.526,1.783-1.051,2.676-1.576C329.359,270.006,330.183,270.084,331.006,270.163z"/>
	<path fill-rule="evenodd" clip-rule="evenodd" fill="#62501B" d="M265.689,341.153c-2.111-0.731-4.223-1.465-6.754-2.342
		c-2.088,1.712-4.398,3.606-6.71,5.502c-0.786-0.718-1.571-1.435-2.357-2.15c5.17-3.921,10.34-7.842,15.51-11.763
		C265.481,333.984,265.586,337.569,265.689,341.153z"/>
	<path fill-rule="evenodd" clip-rule="evenodd" fill="#E5D768" d="M268.879,264.703c-0.556,1.21-1.111,2.42-1.667,3.628
		c-0.936-0.387-1.872-0.773-2.808-1.16l0.002,0.01c-0.977-6.02-1.954-12.041-2.931-18.061c1.876-1.354,3.753-2.71,5.716-4.127
		c1.172,0.536,2.542,1.161,3.91,1.786h0.002c-1.383,1.606-2.765,3.212-5.31,6.167c0.9,1.639,2.587,4.708,4.272,7.776l-0.032-0.159
		c-0.521,0.552-1.043,1.103-1.564,1.655C268.605,263.047,268.742,263.875,268.879,264.703z"/>
	<path fill-rule="evenodd" clip-rule="evenodd" fill="#463712" d="M270.585,367.354c7.365,1.777,12.617-1.501,16.914-7.067
		c-0.038,2.663-0.074,5.324-0.111,7.987c-0.463,0.845-0.925,1.69-1.388,2.536c-0.618,0.299-1.238,0.6-1.859,0.898
		c-0.775,0.523-1.551,1.047-2.326,1.57c-3.082-0.855-6.165-1.712-9.245-2.567c-0.475-0.715-0.949-1.431-1.424-2.146
		C270.888,368.195,270.7,367.791,270.585,367.354z"/>
	<path fill-rule="evenodd" clip-rule="evenodd" fill="#D5C76E" d="M265.689,341.153c-0.104-3.584-0.208-7.169-0.312-10.753
		c2.087,0.746,4.173,1.491,6.275,2.194c2.945,1.126,8.726-5.389,8.831,3.384C275.553,337.704,270.621,339.428,265.689,341.153z"/>
	<path fill-rule="evenodd" clip-rule="evenodd" fill="#E5D768" d="M288.903,268.622c-0.348,0.019-0.694,0.047-1.041,0.085
		c-0.701-3.41-1.403-6.817-2.101-10.207c-3.638,0.681-5.792,1.086-7.945,1.489c-1.75,0.356-3.499,0.714-5.249,1.071
		c-0.486-0.202-0.974-0.402-1.46-0.604c1.019-1.728,2.038-3.457,2.893-4.905c4.807-0.634,9.035-1.192,14.903-1.966
		C288.903,258.876,288.903,263.75,288.903,268.622z"/>
	<path fill-rule="evenodd" clip-rule="evenodd" fill="#463712" d="M342.537,313.627c-2.096-2.15-4.191-4.302-6.287-6.453
		c7.367,1.806,12.594-1.513,16.89-7.058c-0.032,2.715-0.064,5.429-0.098,8.144c-1.1,1.087-2.199,2.175-3.3,3.262
		c-0.765,0.516-1.529,1.031-2.292,1.548c-0.834,0.216-1.667,0.433-2.502,0.649C344.145,313.688,343.341,313.658,342.537,313.627z"/>
	<path fill-rule="evenodd" clip-rule="evenodd" fill="#D2BE4D" d="M284.904,355.804c0.976-4.93,1.95-9.858,2.925-14.786
		c6.756,8.168,4.025,17.065,1.998,25.909c-0.581-2.824-1.163-5.649-1.745-8.475c-0.14-0.377-0.382-0.671-0.726-0.879
		C286.539,356.982,285.722,356.393,284.904,355.804z"/>
	<path fill-rule="evenodd" clip-rule="evenodd" fill="#4E4319" d="M261.476,249.121c0.977,6.02,1.954,12.041,2.931,18.061
		c-0.512-0.403-1.024-0.807-1.537-1.208c-0.65-3.057-1.301-6.115-1.909-8.976c-2.534-0.295-5.23-0.61-7.929-0.924
		C255.846,253.755,258.66,251.438,261.476,249.121z"/>
	<path fill-rule="evenodd" clip-rule="evenodd" fill="#1C1509" d="M212.478,253.21c8.118,4.44,3.388,10.072,1.434,15.446
		c-0.502,0.075-1.005,0.149-1.508,0.226c-0.036-0.992-0.071-1.984-0.107-2.976c-0.447-0.897-0.895-1.794-1.342-2.692
		C211.462,259.879,211.97,256.545,212.478,253.21z"/>
	<path fill-rule="evenodd" clip-rule="evenodd" fill="#4E4319" d="M254.699,352.108c0.367,4.277,0.734,8.555,1.101,12.834
		C250.082,361.123,249.551,356.858,254.699,352.108z"/>
	<path fill-rule="evenodd" clip-rule="evenodd" fill="#4E4319" d="M320.34,291.938c0.367,4.277,0.734,8.555,1.101,12.834
		C315.724,300.953,315.191,296.688,320.34,291.938z"/>
	<path fill-rule="evenodd" clip-rule="evenodd" fill="#353424" d="M154.898,261.959c0.625,2.593,1.25,5.187,1.849,7.676
		c3.437,1.223,6.391,2.273,9.345,3.324C157.164,274.582,152.634,271.727,154.898,261.959z"/>
	<path fill-rule="evenodd" clip-rule="evenodd" fill="#4E4319" d="M241.098,212.379c0.302-2.823,0.604-5.647,0.905-8.471
		c1.486,3.932,2.973,7.866,4.459,11.799C244.674,214.599,242.886,213.489,241.098,212.379z"/>
	<path fill-rule="evenodd" clip-rule="evenodd" fill="#D9CC74" d="M400.896,342.271c1.717-0.857,3.434-1.715,15.661-7.822
		c-10.855,9.282-13.028,11.141-15.201,13C401.203,345.724,401.05,343.997,400.896,342.271z"/>
	<path fill-rule="evenodd" clip-rule="evenodd" fill="#79631A" d="M288.082,358.452c0.582,2.825,1.164,5.65,1.745,8.475
		c-0.317,0.505-0.635,1.009-0.951,1.513c-0.496-0.055-0.992-0.11-1.488-0.165c0.037-2.663,0.073-5.324,0.111-7.987
		C287.693,359.675,287.888,359.063,288.082,358.452z"/>
	<path fill-rule="evenodd" clip-rule="evenodd" fill="#D9CC74" d="M387.481,326.963c0.866-0.502,1.733-1.003,2.601-1.504
		c-0.397,3.645-0.796,7.289-1.194,10.937C388.418,333.253,387.95,330.107,387.481,326.963z"/>
	<path fill-rule="evenodd" clip-rule="evenodd" fill="#353424" d="M168.77,271.761c1.342,0.186,2.683,0.371,4.024,0.557
		c-0.591,1.447-1.182,2.892-1.772,4.338c0.271-1.077,0.544-2.154,0.897-3.552C170.745,272.603,169.758,272.182,168.77,271.761z"/>
	<path fill-rule="evenodd" clip-rule="evenodd" fill="#D9CC74" d="M244.319,371.578c0-1.164,0-2.328,0-15.313
		c1.416,12.924,1.548,14.131,1.681,15.339C245.439,371.596,244.88,371.586,244.319,371.578z"/>
	<path fill-rule="evenodd" clip-rule="evenodd" fill="#E5D768" d="M292.026,269.061c0.266-1.465,0.532-2.93,0.798-4.396
		c0.466,0.073,0.931,0.146,1.396,0.219c-0.203,1.476-0.405,2.95-0.608,4.426C293.084,269.227,292.556,269.144,292.026,269.061z"/>
	<path fill-rule="evenodd" clip-rule="evenodd" fill="#D8C978" d="M142.458,250.626c1.714,0.87,3.428,1.739,5.142,2.607
		C145.887,252.363,144.173,251.494,142.458,250.626z"/>
	<path fill-rule="evenodd" clip-rule="evenodd" fill="#D9CC74" d="M379.044,323.108c1.711,0.871,3.422,1.74,5.134,2.609
		C382.468,324.849,380.755,323.979,379.044,323.108z"/>
	<path fill-rule="evenodd" clip-rule="evenodd" fill="#D2BE4D" d="M287.388,368.274c0.496,0.055,0.992,0.11,1.488,0.165
		c-0.115,1.438-0.23,2.874-0.462,5.765c-1.313-1.848-1.863-2.62-2.413-3.396C286.463,369.965,286.925,369.119,287.388,368.274z"/>
	<path fill-rule="evenodd" clip-rule="evenodd" fill="#4E4319" d="M271.107,260.457c0.486,0.202,0.974,0.402,1.46,0.604
		c-0.493,1.155-0.987,2.312-1.48,3.467c-0.736,0.059-1.472,0.118-2.208,0.176c-0.137-0.828-0.273-1.656-0.409-2.485
		c0.521-0.55,1.043-1.102,1.564-1.653l0.032,0.159C270.451,260.775,270.798,260.688,271.107,260.457z"/>
	<path fill-rule="evenodd" clip-rule="evenodd" fill="#4E4319" d="M264.185,350.618c-0.822-0.229-1.645-0.46-2.467-0.689
		c-0.209-1.029-0.418-2.06-0.627-3.089c1.088,0.392,2.175,0.783,3.262,1.174C264.296,348.882,264.241,349.75,264.185,350.618z"/>
	<path fill-rule="evenodd" clip-rule="evenodd" fill="#4E4319" d="M253.061,256.047c-1.191,1.029-2.384,2.058-3.576,3.087
		C250.677,258.104,251.869,257.076,253.061,256.047z"/>
	<path fill-rule="evenodd" clip-rule="evenodd" fill="#4E4319" d="M329.826,290.447c-0.823-0.23-1.645-0.459-2.468-0.689
		c-0.208-1.029-0.417-2.059-0.626-3.089c1.087,0.392,2.175,0.783,3.261,1.174C329.938,288.711,329.882,289.579,329.826,290.447z"/>
	<path fill-rule="evenodd" clip-rule="evenodd" fill="#E5D768" d="M292.959,274.14c-1.352-0.919-2.703-1.837-4.055-2.756
		C290.256,272.302,291.607,273.221,292.959,274.14z"/>
	<path fill-rule="evenodd" clip-rule="evenodd" fill="#221E16" d="M203.725,270.24c2.389-0.058,4.778-0.114,7.169-0.171
		c-0.081,0.326-0.129,0.657-0.144,0.993c-2.175,0.092-4.349,0.183-6.524,0.274C204.013,270.992,203.846,270.626,203.725,270.24z"/>
	<path fill-rule="evenodd" clip-rule="evenodd" fill="#E4D469" d="M328.536,269.928c-0.893,0.525-1.784,1.049-2.676,1.576
		c0.094-1.079,0.188-2.158,0.392-4.497C327.479,268.576,328.007,269.252,328.536,269.928z"/>
	<path fill-rule="evenodd" clip-rule="evenodd" fill="#D9CC74" d="M394.117,341.629c1.016,0.167,2.031,0.334,3.049,0.502
		C396.15,341.963,395.134,341.796,394.117,341.629z"/>
	<path fill-rule="evenodd" clip-rule="evenodd" fill="#D5C76E" d="M203.725,270.24c0.122,0.386,0.289,0.752,0.501,1.096
		c-1.479-0.38-2.958-0.761-4.435-1.145c0.001,0,0.409-0.41,0.409-0.41c0.394-0.105,0.74-0.297,1.04-0.573
		C202.067,269.552,202.896,269.897,203.725,270.24z"/>
	<path fill-rule="evenodd" clip-rule="evenodd" fill="#D5C76E" d="M176.213,276.905c0.634-0.446,1.268-0.892,1.901-1.337
		c-0.538,0.853-1.076,1.706-1.614,2.558C176.422,277.715,176.326,277.308,176.213,276.905z"/>
	<path fill-rule="evenodd" clip-rule="evenodd" fill="#79631A" d="M271.146,368.565c0.475,0.716,0.949,1.432,1.424,2.146
		C272.094,369.996,271.619,369.281,271.146,368.565z"/>
	<path fill-rule="evenodd" clip-rule="evenodd" fill="#79631A" d="M281.814,373.279c0.775-0.523,1.551-1.047,2.326-1.57
		C283.366,372.234,282.59,372.756,281.814,373.279z"/>
	<path fill-rule="evenodd" clip-rule="evenodd" fill="#D9CC74" d="M390.022,338.37c0.402,0.467,0.806,0.931,1.208,1.396
		C390.827,339.301,390.425,338.835,390.022,338.37z"/>
	<path fill-rule="evenodd" clip-rule="evenodd" fill="#D2BE4D" d="M287.62,340.763c-0.274-0.344-0.55-0.687-0.824-1.03
		C287.07,340.076,287.346,340.419,287.62,340.763z"/>
	<path fill-rule="evenodd" clip-rule="evenodd" fill="#D9CC74" d="M391.452,339.989c0.461,0.361,0.923,0.723,1.385,1.084
		C392.375,340.712,391.913,340.35,391.452,339.989z"/>
	<path fill-rule="evenodd" clip-rule="evenodd" fill="#353424" d="M167.158,278.914c-0.002,0.292-0.14,0.491-0.411,0.597
		c0,0-0.041-0.454-0.041-0.454L167.158,278.914z"/>
	<path fill-rule="evenodd" clip-rule="evenodd" fill="#353424" d="M176.213,276.905c0.113,0.402,0.209,0.81,0.287,1.221
		c-0.349,0.116-0.705,0.198-1.069,0.243C175.692,277.882,175.952,277.393,176.213,276.905z"/>
	<path fill-rule="evenodd" clip-rule="evenodd" fill="#D5C76E" d="M249.331,287.504c0.467,0.533,0.934,1.065,1.401,1.598
		C250.266,288.569,249.798,288.037,249.331,287.504z"/>
	<path fill-rule="evenodd" clip-rule="evenodd" fill="#353424" d="M171.126,276.596c-0.662,0.442-1.323,0.884-1.986,1.325
		C169.802,277.479,170.464,277.038,171.126,276.596z"/>
	<path fill-rule="evenodd" clip-rule="evenodd" fill="#D2BE4D" d="M210.75,271.063c0.015-0.336,0.063-0.667,0.144-0.993
		c0.416,0.088,0.836,0.166,1.255,0.231C211.681,270.557,211.215,270.809,210.75,271.063z"/>
	<polygon fill-rule="evenodd" clip-rule="evenodd" fill="#353424" points="171.699,280.975 172.041,280.849 171.911,281.203 	"/>
	<path fill-rule="evenodd" clip-rule="evenodd" fill="#353424" d="M172.602,280.624c0.543-0.31,1.086-0.62,1.629-0.93
		C173.688,280.004,173.145,280.313,172.602,280.624z"/>
	<path fill-rule="evenodd" clip-rule="evenodd" fill="#D5C76E" d="M198.605,268.756c0.469-0.028,0.938-0.058,1.406-0.085
		c0.051,0.371,0.114,0.743,0.188,1.111c0,0-0.407,0.41-0.409,0.41C199.395,269.715,199,269.236,198.605,268.756z"/>
	<path fill-rule="evenodd" clip-rule="evenodd" fill="#353424" d="M156.113,260.189c-0.397,0.535-0.794,1.072-1.192,1.608
		C155.319,261.26,155.716,260.725,156.113,260.189z"/>
	<path fill-rule="evenodd" clip-rule="evenodd" fill="#463712" d="M380.608,308.098c-1.343,1.467-2.685,2.935-4.027,4.401
		c-1.744-2.087-3.487-4.176-6.595-7.896c2.2-1.519,5.387-3.717,9.299-6.416C379.885,302.677,380.246,305.387,380.608,308.098z"/>
	<path fill-rule="evenodd" clip-rule="evenodd" fill="#463712" d="M389.763,313.718c-1.724-2.256-3.447-4.51-5.171-6.766
		c2.016-0.396,4.031-0.791,8.51-1.669C391.401,309.576,390.582,311.647,389.763,313.718z"/>
	<path fill-rule="evenodd" clip-rule="evenodd" fill="#B3A96B" d="M401.672,334.675c-2.302,0.265-4.604,0.529-11.179,1.285
		c4.627-4.104,6.228-5.523,7.828-6.943c-0.338,1.401-0.676,2.802-1.106,4.588C398.908,334.012,400.29,334.343,401.672,334.675z"/>
	<path fill-rule="evenodd" clip-rule="evenodd" fill="#B3A96B" d="M411.938,335.778c-1.829-1.418-3.659-2.838-5.488-4.256
		c1.422-0.497,2.845-0.995,4.928-1.723C411.627,332.469,411.782,334.124,411.938,335.778z"/>
	<path fill-rule="evenodd" clip-rule="evenodd" fill="#B3A96B" d="M400.989,328.769c0.063-1.352,0.128-2.702,0.192-4.054
		c1.023,0.104,2.046,0.209,5.187,0.525C403.525,327.104,402.257,327.937,400.989,328.769z"/>
	<path fill-rule="evenodd" clip-rule="evenodd" fill="#463712" d="M393.269,320.786c-1.01-1.465-2.02-2.931-3.029-4.396
		C391.249,317.855,392.259,319.32,393.269,320.786z"/>
	<path fill-rule="evenodd" clip-rule="evenodd" fill="#B3A96B" d="M413.17,343.837c-0.12-2.249-0.24-4.497-0.362-6.746
		c0.621,2.255,1.243,4.51,1.866,6.765C414.173,343.849,413.671,343.843,413.17,343.837z"/>
	<path fill-rule="evenodd" clip-rule="evenodd" fill="#B3A96B" d="M400.985,324.481c-1.364,0.025-2.729,0.05-4.093,0.075
		C398.258,324.531,399.621,324.506,400.985,324.481z"/>
	<path fill-rule="evenodd" clip-rule="evenodd" fill="#B3A96B" d="M405.732,331.908c-0.984,0.621-1.968,1.24-2.951,1.861
		C403.765,333.15,404.748,332.529,405.732,331.908z"/>
	<path fill-rule="evenodd" clip-rule="evenodd" fill="#B3A96B" d="M396.758,324.663c-1.018,0.374-2.035,0.748-3.053,1.125
		C394.723,325.415,395.74,325.04,396.758,324.663z"/>
	<path fill-rule="evenodd" clip-rule="evenodd" fill="#463712" d="M391.533,323.894c0.519-0.634,1.038-1.27,1.557-1.905
		c-0.322,0.509-0.646,1.018-0.971,1.527C391.925,323.646,391.73,323.772,391.533,323.894z"/>
	<path fill-rule="evenodd" clip-rule="evenodd" fill="#463712" d="M376.453,312.581c-0.62,0.333-1.24,0.667-1.86,0.999
		C375.213,313.248,375.833,312.914,376.453,312.581z"/>
	<path fill-rule="evenodd" clip-rule="evenodd" fill="#D8C978" d="M150.765,231.737c-0.009,0.318-0.005,0.636,0.012,0.953
		c-0.919,0.595-1.838,1.188-2.756,1.782l0.004-0.004c-0.46-0.091-0.921-0.182-1.382-0.274c0.008-1.263,0.016-2.528,0.023-3.792
		c0.464-0.011,0.929-0.021,1.393-0.032c0.881,0.002,1.763,0.007,2.644,0.011C150.755,230.832,150.775,231.283,150.765,231.737z"/>
	<path fill-rule="evenodd" clip-rule="evenodd" fill="#E4D469" d="M150.703,230.38c-0.881-0.004-1.763-0.008-2.645-0.011
		c0.444-1.37,0.888-2.739,1.332-4.109l-0.003-0.001C149.826,227.633,150.265,229.006,150.703,230.38z"/>
	<path fill-rule="evenodd" clip-rule="evenodd" fill="#463712" d="M146.643,234.194c0.461,0.092,0.922,0.183,1.382,0.274
		c0.754,1.313,1.508,2.624,1.707,2.969c-3.337,0.888-6.535,1.74-9.732,2.591c-1.693-2.049-3.387-4.097-6.434-7.783
		c1.816-1.381,4.738-3.603,7.66-5.825c0.961,0.395,1.923,0.792,2.885,1.187c-0.184,0.879-0.367,1.758-0.549,2.635
		C144.589,231.56,145.616,232.877,146.643,234.194z"/>
	<path fill-rule="evenodd" clip-rule="evenodd" fill="#E5D57A" d="M143.562,230.241c0.183-0.877,0.366-1.756,0.549-2.635
		c0.393-0.454,0.785-0.907,1.178-1.361c1.368,0.005,2.734,0.011,4.102,0.016c-0.444,1.369-0.888,2.738-1.332,4.108
		c-0.464,0.011-0.928,0.021-1.393,0.032C145.631,230.348,144.597,230.295,143.562,230.241z"/>
	<path fill-rule="evenodd" clip-rule="evenodd" fill="#E4D469" d="M145.289,226.246c-0.393,0.454-0.785,0.907-1.178,1.361
		c-0.961-0.395-1.923-0.792-2.884-1.187c0.384-0.934,0.768-1.867,1.531-3.724C143.959,224.381,144.624,225.313,145.289,226.246z"/>
	<path fill-rule="evenodd" clip-rule="evenodd" fill="#463712" d="M139.878,240.104c-0.623,0.333-1.245,0.669-1.868,1.003
		C138.632,240.773,139.255,240.438,139.878,240.104z"/>
	<path fill-rule="evenodd" clip-rule="evenodd" fill="#463712" d="M259.664,216.921c7.366,1.796,12.599-1.513,16.895-7.062
		c-0.47,3.172-0.94,6.345-1.41,9.517c-0.66,0.633-1.319,1.265-1.979,1.896c-0.767,0.516-1.531,1.032-2.296,1.549
		c-1.683-0.081-3.366-0.159-5.049-0.237c-1.021-0.543-2.043-1.085-3.065-1.629c-0.466-0.084-0.842-0.315-1.127-0.692
		c-0.468-0.707-0.937-1.415-1.405-2.121C259.975,217.766,259.787,217.358,259.664,216.921z"/>
	<path fill-rule="evenodd" clip-rule="evenodd" fill="#79631A" d="M273.485,202.45c0.339-4.635,0.678-9.27,1.018-13.905
		c1.217,1.17,2.431,2.34,3.646,3.51C276.595,195.519,275.04,198.985,273.485,202.45z"/>
	<path fill-rule="evenodd" clip-rule="evenodd" fill="#79631A" d="M275.148,219.376c0.47-3.172,0.94-6.345,1.41-9.517
		c0.228-0.665,0.455-1.329,0.684-1.994C280.13,212.354,280.821,216.445,275.148,219.376z"/>
	<path fill-rule="evenodd" clip-rule="evenodd" fill="#79631A" d="M262.759,220.956c1.022,0.543,2.044,1.085,3.065,1.629
		C264.803,222.042,263.781,221.498,262.759,220.956z"/>
	<path fill-rule="evenodd" clip-rule="evenodd" fill="#79631A" d="M270.873,222.822c0.765-0.517,1.529-1.034,2.296-1.549
		C272.404,221.789,271.639,222.305,270.873,222.822z"/>
	<path fill-rule="evenodd" clip-rule="evenodd" fill="#79631A" d="M260.227,218.144c0.469,0.706,0.938,1.414,1.405,2.121
		C261.163,219.556,260.694,218.85,260.227,218.144z"/>
	<path fill-rule="evenodd" clip-rule="evenodd" fill="#79631A" d="M273.988,187.91c-2.339-0.856-4.679-1.71-7.018-2.565
		c2.4,0.402,4.801,0.805,7.202,1.208C274.112,187.004,274.05,187.457,273.988,187.91z"/>
	<path fill-rule="evenodd" clip-rule="evenodd" fill="#E7D973" d="M184.949,230.382c-4.691,3.322-13.678,3.738-8.565,15.044
		c-3.817,0-7.2,0-10.583,0c0-9.514,0-19.028,0-29.382c3.652-1.608,7.297-3.213,10.942-4.82c0,3.784,0,7.565,0,7.427
		C180.887,224.574,182.918,227.477,184.949,230.382z M175.917,232.076c5.125-3.245,5.348-5.113,0-7.25
		C175.917,227.445,175.917,229.192,175.917,232.076z"/>
	<path fill-rule="evenodd" clip-rule="evenodd" fill="#E7D971" d="M184.949,230.382c-2.031-2.905-4.063-5.808-8.206-11.731
		c0,0.139,0-3.643,0-7.427c5.014-1.823,10.028-3.647,15.042-5.471c0.456,0.457,0.912,0.914,1.368,1.37
		c-0.859,0.992-1.718,1.983-2.917,3.367c5.857,3.693,4.604,8.984,3.4,14.495c1.686,0.938,3.361,1.869,5.037,2.798
		c-2.293,0.165-4.586,0.329-6.879,0.494c-0.936,0.236-1.871,0.472-2.807,0.707C187.642,229.45,186.295,229.916,184.949,230.382z"/>
	<path fill-rule="evenodd" clip-rule="evenodd" fill="#463712" d="M148.021,234.472c0.918-0.594,1.837-1.187,2.756-1.782
		c1.517,0.712,3.035,1.422,4.551,2.136c-0.727,2.135-1.453,4.27-2.178,6.403C151.44,238.977,149.729,236.725,148.021,234.472z"/>
	<path fill-rule="evenodd" clip-rule="evenodd" fill="#E5D57A" d="M158.948,241.333c-0.431-0.917-0.863-1.836-1.295-2.754
		c0.147-0.131,0.436-0.288,0.417-0.389c-0.062-0.333-0.234-0.647-0.364-0.969c0.001-0.461,0.001-0.921,0.002-1.382
		C163.725,236.406,158.787,239.444,158.948,241.333z"/>
	<path fill-rule="evenodd" clip-rule="evenodd" fill="#E7D971" d="M219.136,197.541c2.725,0.803,5.449,1.604,8.859,2.607
		c0.128,1.652,0.272,3.503,0.541,6.973c-9.109,0-17.46,0-25.811,0c0.324-2.619,0.648-5.239,1.061-8.574
		c3.989-0.75,8.307-1.559,12.624-2.368C217.318,196.633,218.228,197.087,219.136,197.541z"/>
	<path fill-rule="evenodd" clip-rule="evenodd" fill="#E7D971" d="M238.279,183.871c-2.031,1.927-4.062,3.853-6.614,6.274
		c0.335,1.75,0.746,3.891,1.156,6.031c-1.206,0.449-2.411,0.896-4.036,1.501c-0.549-1.088-0.999-1.979-1.448-2.87
		c-0.235-6.371-5.167-3.33-8.2-4.093C222.672,180.474,230.325,181.752,238.279,183.871z"/>
	<path fill-rule="evenodd" clip-rule="evenodd" fill="#E4D469" d="M219.137,190.714c3.033,0.764,7.965-2.277,8.2,4.093
		c-2.733,0.911-5.467,1.823-8.2,2.733c-0.909-0.454-1.818-0.908-2.726-1.362C217.319,194.357,218.228,192.536,219.137,190.714z"/>
	<path fill-rule="evenodd" clip-rule="evenodd" fill="#62501B" d="M249.204,182.494c0.033-0.422,0.074-0.844,0.125-1.266
		c1.565-0.438,3.131-0.876,3.928-1.099c1.635,4.268,2.974,7.763,4.313,11.258c-1.428-0.213-2.856-0.429-4.284-0.644
		C251.925,187.994,250.564,185.244,249.204,182.494z"/>
	<path fill-rule="evenodd" clip-rule="evenodd" fill="#E7D971" d="M262.761,182.557
		C261.746,180.671,261.972,181.091,262.761,182.557C261.431,181.545,261.047,181.251,262.761,182.557z"/>
	<path fill-rule="evenodd" clip-rule="evenodd" fill="#62501B" d="M259.94,188.973c-0.507,0.51-1.014,1.019-1.521,1.529
		C258.926,189.992,259.434,189.483,259.94,188.973z"/>
	<path fill-rule="evenodd" clip-rule="evenodd" fill="#D2BE4D" d="M191.795,228.275c2.293-0.164,4.586-0.328,6.879-0.493
		c1.931,1.437,3.862,2.874,5.794,4.31c-0.248,0.707-0.497,1.415-0.745,2.122c-2.198,1.433-4.396,2.865-6.594,4.298
		c-0.875,0.51-1.749,1.019-2.622,1.527c-0.788-1.095-1.574-2.188-2.361-3.284c-0.042-0.346-0.186-0.641-0.434-0.884
		C191.739,233.34,191.767,230.808,191.795,228.275z"/>
	<path fill-rule="evenodd" clip-rule="evenodd" fill="#463712" d="M214.373,234.873c-0.255,3.866-0.51,7.732-0.764,11.598
		c-0.56-3.873-1.12-7.747-1.681-11.62c0.172-0.175,0.342-0.352,0.512-0.526C213.084,234.507,213.728,234.69,214.373,234.873z"/>
	<path fill-rule="evenodd" clip-rule="evenodd" fill="#463712" d="M203.723,234.214c0.249-0.708,0.498-1.416,0.745-2.122
		c2.657,0.744,5.314,1.488,7.972,2.233c-0.17,0.175-0.34,0.352-0.51,0.525C209.195,234.636,206.459,234.425,203.723,234.214z"/>
	<path fill-rule="evenodd" clip-rule="evenodd" fill="#2D2308" d="M271.087,264.527c0.493-1.155,0.987-2.312,1.48-3.467
		c1.75-0.356,3.499-0.714,5.249-1.071c3.761,3.875,10.56,6.239,6.871,13.818c-1.545,1.104-3.09,2.208-4.635,3.312
		c-2.528-2.365-5.056-4.729-7.585-7.094l0.005,0.004C272.011,268.195,271.549,266.362,271.087,264.527z"/>
	<path fill-rule="evenodd" clip-rule="evenodd" fill="#2D2308" d="M282.957,280.217c8.846,5.807,5.648,10.979-0.841,15.978
		c0.796-2.677,1.592-5.356,2.387-7.997C283.987,285.563,283.472,282.891,282.957,280.217z"/>
	<path fill-rule="evenodd" clip-rule="evenodd" fill="#4E4319" d="M264.404,267.171c0.936,0.387,1.872,0.773,2.808,1.16
		c-0.535,0.49-1.07,0.98-2.161,1.979C264.725,268.729,264.564,267.951,264.404,267.171z"/>
	<path fill-rule="evenodd" clip-rule="evenodd" fill="#2D2308" d="M272.468,270.025c-0.086,0.155-0.173,0.309-0.26,0.463
		c0.089-0.153,0.177-0.306,0.265-0.459L272.468,270.025z"/>
	<path fill-rule="evenodd" clip-rule="evenodd" fill="#2D2308" d="M280.684,279.588c0.618,0.18,1.237,0.362,1.857,0.54
		C281.923,279.946,281.303,279.768,280.684,279.588z"/>
	<path fill-rule="evenodd" clip-rule="evenodd" fill="#342D11" d="M191.711,235.872c0.249,0.243,0.393,0.539,0.434,0.884
		c-0.117,0.593-0.233,1.186-0.349,1.777c-2.243,2.769-4.486,5.537-6.729,8.304c-1.249,0.482-2.499,0.963-3.747,1.443
		c0.73-5.413-4.94-12.771,4.703-15.475C187.919,233.829,189.815,234.85,191.711,235.872z"/>
	<path fill-rule="evenodd" clip-rule="evenodd" fill="#62501B" d="M191.711,235.872c-1.896-1.021-3.792-2.043-5.688-3.066
		c0.988-1.274,1.977-2.548,2.965-3.822c0.936-0.235,1.872-0.47,2.807-0.707C191.767,230.808,191.739,233.34,191.711,235.872z"/>
	<path fill-rule="evenodd" clip-rule="evenodd" fill="#463712" d="M155.974,246.773c-0.781-0.948-1.561-1.896-2.342-2.845
		C154.413,244.877,155.193,245.825,155.974,246.773z"/>
	<path fill-rule="evenodd" clip-rule="evenodd" fill="#E7D971" d="M177.329,264.83c-0.046-0.155-0.092-0.311-0.138-0.467
		c0.136-0.038,0.356-0.143,0.391-0.099c0.094,0.119,0.11,0.299,0.157,0.456C177.603,264.757,177.465,264.794,177.329,264.83z"/>
	<path fill-rule="evenodd" clip-rule="evenodd" fill="#E7D776" d="M157.706,237.221c0.13,0.322,0.302,0.636,0.364,0.969
		c0.019,0.101-0.27,0.258-0.417,0.389C157.636,238.125,157.653,237.672,157.706,237.221z"/>
	<path fill-rule="evenodd" clip-rule="evenodd" fill="#463712" d="M156.235,248.178c-0.125-0.394-0.142-0.792-0.049-1.194
		c0.148,0.26,0.34,0.507,0.419,0.788C156.631,247.864,156.366,248.041,156.235,248.178z"/>
	<path fill-rule="evenodd" clip-rule="evenodd" fill="#231D04" d="M329.826,290.447c0.056-0.868,0.111-1.736,0.167-2.604
		c2.519-0.822,5.037-1.646,8.528-2.79c1.383,0.613,3.566,1.58,7.147,3.167c-1.212,5.306-2.378,10.413-4.047,17.724
		c-6.57-4.455-11.186-7.584-16.612-11.262C327.094,292.85,328.46,291.647,329.826,290.447z"/>
	<path fill-rule="evenodd" clip-rule="evenodd" fill="#E7D971" d="M335.292,307.214c-1.693,1.58-3.386,3.158-6.206,5.789
		c0.456-2.464,0.646-3.493,0.837-4.523l-0.089-0.374c0.493-0.383,0.986-0.765,1.479-1.147
		C332.64,307.043,333.966,307.128,335.292,307.214z"/>
	<path fill-rule="evenodd" clip-rule="evenodd" fill="#79631A" d="M353.042,308.26c0.033-2.715,0.065-5.429,0.098-8.144
		c0.226-0.662,0.45-1.325,0.676-1.988C353.559,301.505,353.301,304.882,353.042,308.26z"/>
	<path fill-rule="evenodd" clip-rule="evenodd" fill="#4E4319" d="M334.523,303.089C327.23,303.089,328.279,303.089,334.523,303.089
		C328.32,303.84,327.239,303.971,334.523,303.089z"/>
	<path fill-rule="evenodd" clip-rule="evenodd" fill="#62501B" d="M335.012,280.755c0.505-0.506,1.009-1.013,1.514-1.52
		C336.021,279.742,335.517,280.25,335.012,280.755z"/>
	<path fill-rule="evenodd" clip-rule="evenodd" fill="#4E4319" d="M331.313,306.959c-0.493,0.382-0.986,0.764-1.479,1.147
		C330.327,307.723,330.82,307.341,331.313,306.959z"/>
	<path fill-rule="evenodd" clip-rule="evenodd" fill="#2D2308" d="M203.723,234.214c2.736,0.211,5.473,0.422,8.207,0.636
		c0.559,3.874,1.119,7.749,1.679,11.621c-0.457,1.937-0.913,3.873-1.369,5.811c-0.479-0.456-0.958-0.912-1.436-1.368
		c-0.414-0.921-0.828-1.843-1.242-2.763c-0.909-0.012-1.817-0.022-2.725-0.033c-3.236-3.201-6.473-6.404-9.708-9.606
		C199.326,237.079,201.524,235.647,203.723,234.214z"/>
	<path fill-rule="evenodd" clip-rule="evenodd" fill="#1C1509" d="M197.128,238.512c3.236,3.202,6.472,6.405,9.708,9.606
		c-7.257-0.428-14.515-0.854-21.771-1.281c2.244-2.767,4.487-5.536,6.73-8.303c0.903,0.502,1.807,1.003,2.71,1.505
		C195.38,239.531,196.254,239.022,197.128,238.512z"/>
	<path fill-rule="evenodd" clip-rule="evenodd" fill="#221E16" d="M210.954,263.214c0.448,0.897,0.895,1.795,1.342,2.692
		c-0.602-0.164-1.203-0.328-2.298-0.627C210.367,264.483,210.661,263.849,210.954,263.214z"/>
	<path fill-rule="evenodd" clip-rule="evenodd" fill="#1C1509" d="M209.562,248.151c0.414,0.92,0.829,1.842,1.242,2.763
		C210.39,249.993,209.976,249.072,209.562,248.151z"/>
	<path fill-rule="evenodd" clip-rule="evenodd" fill="#221E16" d="M200.199,269.782c-0.074-0.369-0.136-0.74-0.188-1.111
		c0.41,0.18,0.819,0.36,1.228,0.54C200.939,269.485,200.593,269.677,200.199,269.782z"/>
	<path fill-rule="evenodd" clip-rule="evenodd" fill="#231D04" d="M264.185,350.618c0.057-0.868,0.111-1.736,0.168-2.604
		c2.519-0.822,5.036-1.646,8.528-2.79c1.382,0.613,3.564,1.58,7.146,3.167c-1.211,5.306-2.377,10.412-4.046,17.725
		c-6.57-4.454-11.186-7.585-16.612-11.263C261.452,353.021,262.818,351.818,264.185,350.618z"/>
	<path fill-rule="evenodd" clip-rule="evenodd" fill="#4E4319" d="M258.037,364.373c1.787-0.521,3.573-1.043-0.082,0.024
		c3.824-0.226,1.971-0.116,0.116-0.008L258.037,364.373z"/>
	<path fill-rule="evenodd" clip-rule="evenodd" fill="#463712" d="M284.904,355.804c0.817,0.589,1.635,1.179,2.452,1.77
		C286.539,356.982,285.722,356.393,284.904,355.804z"/>
	<path fill-rule="evenodd" clip-rule="evenodd" fill="#231D04" d="M252.595,197.733c0,0-0.089-0.223-0.093-0.222
		c2.774-0.707,5.553-1.413,9.815-2.497c0.861,0.363,3.068,1.294,6.72,2.835c-1.173,5.333-2.302,10.463-3.929,17.862
		c-6.616-4.474-11.244-7.603-15.758-10.656C250.649,202.123,251.623,199.928,252.595,197.733z"/>
	<path fill-rule="evenodd" clip-rule="evenodd" fill="#463712" d="M249.204,182.494c1.36,2.75,2.721,5.5,4.081,8.25
		c-1.355,1.811-2.712,3.622-4.067,5.431c-2.793-0.793-5.586-1.585-8.379-2.378c0.001-1.159,0.003-2.318,0.005-3.478
		c0.346-0.359,0.691-0.718,1.039-1.079c0.564-0.558,1.127-1.116,1.689-1.673c0.509-0.323,1.019-0.646,1.528-0.97
		c0.892-0.96,1.784-1.919,2.676-2.878C248.253,183.311,248.729,182.903,249.204,182.494z"/>
	<path fill-rule="evenodd" clip-rule="evenodd" fill="#4E4319" d="M257.943,212.832
		C250.649,212.832,251.698,212.832,257.943,212.832C251.736,213.585,250.646,213.716,257.943,212.832z"/>
	<path fill-rule="evenodd" clip-rule="evenodd" fill="#79631A" d="M347.45,313.07c0.763-0.517,1.527-1.032,2.292-1.548
		C348.979,312.038,348.214,312.555,347.45,313.07z"/>
	<path fill-rule="evenodd" clip-rule="evenodd" fill="#4E4319" d="M284.688,273.807c3.688-7.579-3.11-9.942-6.871-13.818
		c2.153-0.403,4.308-0.808,7.945-1.489c0.697,3.39,1.399,6.797,2.101,10.207C286.805,270.407,285.746,272.107,284.688,273.807z"/>
	<path fill-rule="evenodd" clip-rule="evenodd" fill="#62501B" d="M247.776,183.719c-0.892,0.959-1.784,1.918-2.676,2.878
		C245.992,185.637,246.885,184.678,247.776,183.719z"/>
	<path fill-rule="evenodd" clip-rule="evenodd" fill="#62501B" d="M240.844,190.319c-0.002,1.159-0.004,2.318-0.005,3.478
		C240.84,192.637,240.842,191.478,240.844,190.319z"/>
	<path fill-rule="evenodd" clip-rule="evenodd" fill="#62501B" d="M243.572,187.566c-0.563,0.557-1.125,1.115-1.689,1.673
		C242.444,188.682,243.008,188.124,243.572,187.566z"/>
	<path fill-rule="evenodd" clip-rule="evenodd" fill="#E7D971" d="M248.014,272.215C247.364,274.299,247.507,273.84,248.014,272.215
		C248.218,273.909,248.276,274.391,248.014,272.215z"/>
	<path fill-rule="evenodd" clip-rule="evenodd" fill="#E7D971" d="M270.034,260.564c-0.521,0.552-1.043,1.103-1.564,1.653
		C268.991,261.667,269.513,261.116,270.034,260.564z"/>
	<path fill-rule="evenodd" clip-rule="evenodd" fill="#E4D469" d="M143.562,230.241c1.035,0.054,2.069,0.107,3.104,0.161
		c-0.008,1.265-0.015,2.529-0.023,3.792C145.616,232.877,144.589,231.56,143.562,230.241z"/>
	<path fill-rule="evenodd" clip-rule="evenodd" fill="#E7D776" d="M175.917,232.076c0-2.884,0-4.631,0-7.25
		C181.265,226.963,181.042,228.831,175.917,232.076z"/>
	<path fill-rule="evenodd" clip-rule="evenodd" fill="#62501B" d="M194.507,240.04c-0.904-0.502-1.807-1.003-2.71-1.505
		c0.116-0.593,0.232-1.186,0.349-1.779C192.933,237.851,193.719,238.945,194.507,240.04z"/>
</g>
</svg>
